<svg width="61" height="61" viewBox="0 0 61 61" fill="none" xmlns="http://www.w3.org/2000/svg">
<g clip-path="url(#clip0)">
<path d="M51.5487 47.6955L52.2154 50.3636H49.4864C49.2164 49.0378 48.3948 47.92 47.2819 47.2291L53.4551 45.2646V32.263C56.0506 28.6726 57.4693 24.2626 57.3135 19.661C56.9477 8.84263 47.6138 0.0410156 36.5061 0.0410156H30.0164C26.6545 0.0410156 23.548 0.717467 20.7832 2.05295C13.4767 5.58037 8.93897 12.7765 8.93897 20.833C8.93897 23.3142 7.828 25.6262 5.89058 27.1755L3.78284 28.8613L4.25316 29.5949C7.49316 34.6484 9.89606 40.1578 11.3951 45.9691L11.697 47.14C12.2167 49.1559 13.5115 50.7923 15.2486 51.6304C16.1661 52.0726 17.1619 52.2933 18.1528 52.2933C19.2415 52.2933 20.3264 52.0281 21.3038 51.4988L35.817 43.6378C38.3206 42.281 40.9393 41.02 43.4719 39.8007C44.2799 39.4117 45.088 39.0226 45.8941 38.6297C48.028 37.5904 49.9161 36.1988 51.5187 34.5575V43.8488L32.1638 50.0075V48.4281H30.2283V60.041H56.6293L53.4261 47.2252L51.5487 47.6955ZM45.0474 36.8907C44.2441 37.2826 43.438 37.6707 42.6328 38.0588C41.7348 38.4913 40.8193 38.9384 39.9077 39.3846V35.8475H37.9722V40.3494C37.3238 40.6755 36.6793 41.0113 36.0367 41.3481V35.8475H34.1012V42.3681L32.1657 43.4162V35.8475H30.2303V44.4642L20.3825 49.7984C19.0615 50.5136 17.4561 50.5475 16.0906 49.8884C14.8674 49.2991 13.949 48.1213 13.5715 46.6581L13.2696 45.4871C13.1893 45.1755 13.0964 44.8678 13.0112 44.5581H15.7132V42.6226H12.4432C10.977 37.9407 8.93993 33.4678 6.34735 29.29L7.10026 28.6871C9.49929 26.7681 10.8745 23.9055 10.8745 20.833C10.8745 13.5255 14.9941 6.99714 21.6241 3.79585C24.1248 2.58811 26.9486 1.9765 30.0164 1.9765H30.2293V8.14102C25.6596 10.3213 22.4874 14.9723 22.4874 20.3636C22.4874 27.8346 28.5648 33.912 36.0357 33.912C43.5067 33.912 49.5841 27.8346 49.5841 20.3636C49.5841 12.8926 43.5067 6.81521 36.0357 6.81521C34.6906 6.81521 33.3928 7.01844 32.1648 7.38618V1.9765H36.5061C46.5822 1.9765 55.048 9.93908 55.3799 19.7259C55.6248 26.9762 51.5699 33.7136 45.0474 36.8907ZM29.2374 25.7936L27.1761 27.8549C25.4622 25.8304 24.4228 23.2175 24.4228 20.3636C24.4228 17.5097 25.4622 14.8968 27.1761 12.8723L29.2374 14.9336C28.0441 16.4249 27.3261 18.31 27.3261 20.3636C27.3261 22.4171 28.0441 24.3023 29.2374 25.7936ZM30.6057 27.162C32.0961 28.3552 33.9822 29.0733 36.0357 29.0733C38.0893 29.0733 39.9754 28.3552 41.4657 27.162L43.527 29.2233C41.5025 30.9371 38.8896 31.9765 36.0357 31.9765C33.1819 31.9765 30.569 30.9371 28.5445 29.2233L30.6057 27.162ZM29.2615 20.3636C29.2615 16.6281 32.3012 13.5894 36.0357 13.5894C39.7703 13.5894 42.8099 16.6281 42.8099 20.3636C42.8099 24.0991 39.7703 27.1378 36.0357 27.1378C32.3012 27.1378 29.2615 24.0991 29.2615 20.3636ZM42.8341 25.7936C44.0274 24.3023 44.7454 22.4171 44.7454 20.3636C44.7454 18.31 44.0274 16.4249 42.8341 14.9336L44.8954 12.8723C46.6093 14.8968 47.6487 17.5097 47.6487 20.3636C47.6487 23.2175 46.6093 25.8304 44.8954 27.8549L42.8341 25.7936ZM41.4657 13.5652C39.9754 12.372 38.0893 11.6539 36.0357 11.6539C33.9822 11.6539 32.0961 12.372 30.6057 13.5652L28.5445 11.5039C30.569 9.79005 33.1819 8.75069 36.0357 8.75069C38.8896 8.75069 41.5025 9.79005 43.527 11.5039L41.4657 13.5652ZM32.1648 52.0397L40.2861 49.4549C40.0422 50.0326 39.9067 50.6665 39.9067 51.3313C39.9067 52.7597 40.5406 54.0313 41.5277 54.9178L32.1648 57.7678V52.0397ZM37.7003 58.1055L44.1977 56.1284L44.1938 56.1149C44.3767 56.1352 44.5567 56.17 44.7454 56.17C44.8654 56.17 44.9787 56.143 45.0967 56.1342L46.0828 58.1055H37.7003ZM44.7454 54.2346C43.1448 54.2346 41.8422 52.932 41.8422 51.3313C41.8422 49.7307 43.1448 48.4281 44.7454 48.4281C46.3461 48.4281 47.6487 49.7307 47.6487 51.3313C47.6487 52.932 46.3461 54.2346 44.7454 54.2346ZM48.2467 58.1055L46.9896 55.5923C47.3922 55.3794 47.7677 55.1239 48.0938 54.8104L52.4883 58.1055H48.2467ZM49.199 53.2204C49.3238 52.9271 49.4206 52.6184 49.4864 52.2991H52.6993L53.7899 56.6636L49.199 53.2204Z" fill="white"/>
<path d="M36.0357 25.2023C38.7038 25.2023 40.8745 23.0316 40.8745 20.3636C40.8745 17.6955 38.7038 15.5249 36.0357 15.5249C33.3677 15.5249 31.197 17.6955 31.197 20.3636C31.197 23.0316 33.3677 25.2023 36.0357 25.2023ZM36.0357 17.4604C37.6364 17.4604 38.939 18.7629 38.939 20.3636C38.939 21.9642 37.6364 23.2668 36.0357 23.2668C34.4351 23.2668 33.1325 21.9642 33.1325 20.3636C33.1325 18.7629 34.4351 17.4604 36.0357 17.4604Z" fill="white"/>
<path d="M45.7132 50.3636H43.7777V52.2991H45.7132V50.3636Z" fill="white"/>
<path d="M53.4551 19.3958H51.5197V21.3313H53.4551V19.3958Z" fill="white"/>
<path d="M51.606 12.4943L50.6384 10.818L48.9621 11.7855L49.9297 13.4619L51.606 12.4943Z" fill="white"/>
<path d="M42.9382 6.47271L44.6145 7.44026L45.5821 5.76394L43.9057 4.79639L42.9382 6.47271Z" fill="white"/>
<path d="M37.0035 2.94426H35.068V4.87974H37.0035V2.94426Z" fill="white"/>
<path d="M42.9397 34.2579L43.9072 35.9342L45.5835 34.9667L44.616 33.2904L42.9397 34.2579Z" fill="white"/>
<path d="M48.9604 28.9436L50.6367 29.9112L51.6043 28.2349L49.9279 27.2673L48.9604 28.9436Z" fill="white"/>
</g>
<defs>
<clipPath id="clip0">
<rect x="0.553955" y="0.0410156" width="60" height="60" fill="white"/>
</clipPath>
</defs>
</svg>
