<svg width="70" height="70" viewBox="0 0 70 70" fill="none" xmlns="http://www.w3.org/2000/svg">
<g clip-path="url(#clip0)">
<path d="M55.0794 19.2722H15.7879C15.2292 19.2722 14.7764 19.725 14.7764 20.2837C14.7764 20.8424 15.2292 21.2953 15.7879 21.2953H55.0794C55.6381 21.2953 56.0909 20.8424 56.0909 20.2837C56.0909 19.725 55.6381 19.2722 55.0794 19.2722Z" fill="white"/>
<path d="M55.0794 30.2863H15.7879C15.2292 30.2863 14.7764 30.7391 14.7764 31.2978C14.7764 31.8564 15.2292 32.3094 15.7879 32.3094H55.0794C55.6381 32.3094 56.0909 31.8566 56.0909 31.2978C56.0909 30.7391 55.6381 30.2863 55.0794 30.2863Z" fill="white"/>
<path d="M42.1978 37.4343H28.6693C28.1105 37.4343 27.6577 37.8871 27.6577 38.4459C27.6577 39.0045 28.1105 39.4574 28.6693 39.4574H42.1978C42.7566 39.4574 43.2094 39.0046 43.2094 38.4459C43.2094 37.8871 42.7566 37.4343 42.1978 37.4343Z" fill="white"/>
<path d="M55.0793 24.7567H25.7713C25.2126 24.7567 24.7598 25.2095 24.7598 25.7683C24.7598 26.3269 25.2126 26.7798 25.7713 26.7798H55.0793C55.6381 26.7798 56.0909 26.327 56.0909 25.7683C56.0909 25.2095 55.6381 24.7567 55.0793 24.7567Z" fill="white"/>
<path d="M21.0651 24.7566H15.7879C15.2292 24.7566 14.7764 25.2094 14.7764 25.7681C14.7764 26.3268 15.2292 26.7797 15.7879 26.7797H21.0651C21.6238 26.7797 22.0766 26.3268 22.0766 25.7681C22.0766 25.2095 21.6238 24.7566 21.0651 24.7566Z" fill="white"/>
<path d="M64.7115 17.5626C64.4762 17.3315 64.1648 17.2042 63.8326 17.2042C63.8323 17.2042 63.8322 17.2042 63.8319 17.2042C61.7817 17.2042 60.1037 15.6016 60.0114 13.5551C59.9811 12.8896 59.4342 12.3684 58.7665 12.3684H11.8599C11.192 12.3684 10.645 12.8897 10.6148 13.5557C10.5268 15.5113 8.92595 17.1123 6.97023 17.2003C6.30449 17.2302 5.78308 17.7773 5.78308 18.4454V44.5928C5.78308 45.261 6.30449 45.8078 6.97023 45.8378C8.92595 45.9259 10.5268 47.5268 10.6148 49.483C10.6452 50.1485 11.1922 50.6696 11.8599 50.6696H41.7209C42.2796 50.6696 42.7324 50.2168 42.7324 49.6581C42.7324 49.0995 42.2796 48.6465 41.7209 48.6465H12.5556C12.1374 46.2101 10.2425 44.3152 7.80605 43.8969V19.141C10.2425 18.7228 12.1374 16.8274 12.5556 14.3914H58.0712C58.5065 16.9048 60.53 18.8449 63.061 19.1769V36.3554C63.061 36.914 63.5138 37.3669 64.0726 37.3669C64.6313 37.3669 65.0841 36.9141 65.0841 36.3554V18.4511C65.0841 18.1143 64.9518 17.7987 64.7115 17.5626Z" fill="white"/>
<path d="M67.1258 7.31898H3.74144C2.19325 7.31898 0.933594 8.57864 0.933594 10.1268V52.9109C0.933594 54.4592 2.19325 55.7187 3.74144 55.7187H46.1991L44.6959 58.8686C44.5028 59.273 44.5498 59.7473 44.8183 60.106C45.0869 60.4649 45.5288 60.6432 45.9709 60.5724L48.7695 60.1226L50.3305 62.6849C50.5493 63.0444 50.9382 63.2614 51.3562 63.2614C51.3765 63.2614 51.397 63.2609 51.4175 63.2598C51.8584 63.2374 52.2505 62.976 52.4409 62.5773L55.1532 56.8939L57.8652 62.5769C58.0552 62.9756 58.4472 63.2373 58.8883 63.2599C58.909 63.261 58.9297 63.2615 58.9502 63.2615C59.3681 63.2615 59.757 63.0446 59.9759 62.6852L61.5369 60.1229L64.3354 60.5728C64.7789 60.6437 65.22 60.4649 65.4883 60.1059C65.7568 59.7469 65.8034 59.2728 65.6103 58.869L64.1071 55.7191H67.1258C68.6739 55.7191 69.9336 54.4596 69.9336 52.9113V10.1268C69.9336 8.57864 68.6739 7.31898 67.1258 7.31898ZM51.2687 60.3365L50.2098 58.5987C49.9549 58.1801 49.4775 57.9599 48.9932 58.0376L47.1962 58.3266L49.0891 54.3601C49.8352 55.1214 50.8981 55.5327 52.0014 55.4288C52.3786 55.3927 52.7568 55.4943 53.0658 55.7139C53.1677 55.7864 53.2735 55.8507 53.3806 55.9113L51.2687 60.3365ZM55.3944 54.3383C55.3913 54.3387 55.3882 54.339 55.385 54.3395C55.2316 54.3622 55.0757 54.3622 54.9223 54.3397C54.9184 54.3391 54.9145 54.3387 54.9107 54.3382C54.6731 54.3014 54.4422 54.2104 54.2376 54.065C53.6257 53.63 52.8952 53.3987 52.1499 53.3987C52.037 53.3987 51.9238 53.4041 51.8106 53.4148C51.1409 53.478 50.5047 53.1102 50.2252 52.4994C50.1011 52.2283 49.9427 51.9774 49.7589 51.7478C49.7508 51.7364 49.7419 51.7256 49.7334 51.7146C49.7232 51.7022 49.7136 51.6894 49.7034 51.6771C49.6917 51.6633 49.6794 51.6503 49.6669 51.6372C49.3324 51.2523 48.9191 50.938 48.4483 50.7227C47.8374 50.4432 47.4696 49.806 47.533 49.1372C47.6144 48.2766 47.3835 47.4146 46.8827 46.7102C46.4934 46.1626 46.4934 45.4269 46.8826 44.8794C47.3835 44.175 47.6144 43.313 47.533 42.4524C47.4696 41.7835 47.8376 41.1464 48.4483 40.8669C49.2344 40.5072 49.8654 39.8762 50.2251 39.0901C50.5047 38.4792 51.1432 38.1113 51.8106 38.1748C52.6721 38.2561 53.5333 38.0252 54.2377 37.5244C54.7854 37.1352 55.5211 37.1352 56.0685 37.5244C56.7731 38.0252 57.6343 38.2555 58.4956 38.1748C59.165 38.1112 59.8018 38.4794 60.0813 39.0901C60.441 39.8762 61.0719 40.5072 61.8579 40.8667C62.4688 41.1464 62.8367 41.7835 62.7734 42.4523C62.692 43.313 62.9228 44.175 63.4236 44.8792C63.8129 45.4268 63.8129 46.1625 63.4236 46.71C62.9228 47.4146 62.692 48.2766 62.7734 49.137C62.8367 49.8059 62.4688 50.443 61.8578 50.7227C61.3881 50.9376 60.9757 51.2511 60.6416 51.6348C60.6279 51.6491 60.6144 51.6635 60.6017 51.6784C60.593 51.689 60.5848 51.6999 60.576 51.7105C60.5659 51.7235 60.5557 51.7361 60.5462 51.7495C60.3629 51.9786 60.205 52.229 60.0813 52.4994C59.8016 53.1102 59.1645 53.4782 58.4956 53.4148C57.6358 53.3338 56.7733 53.5642 56.0685 54.065C55.8637 54.2106 55.6324 54.3017 55.3944 54.3383ZM61.313 58.0375C60.8286 57.96 60.3515 58.1801 60.0964 58.5988L59.0377 60.3366L56.9257 55.9113C57.0329 55.8507 57.1385 55.7864 57.2406 55.7139C57.5497 55.4942 57.9281 55.3923 58.3049 55.4287C59.4087 55.5327 60.4713 55.1214 61.2174 54.3601L63.1101 58.3264L61.313 58.0375ZM67.9106 52.911C67.9106 53.3437 67.5586 53.6959 67.1258 53.6959H63.1417L62.6201 52.6029C62.6464 52.5891 62.6726 52.5745 62.6998 52.5621C64.0927 51.9245 64.9316 50.4715 64.7873 48.9465C64.7516 48.5691 64.8528 48.1911 65.0725 47.8821C65.96 46.6335 65.96 44.9557 65.0723 43.7071C64.8528 43.3982 64.7516 43.0203 64.7873 42.6428C64.9316 41.1178 64.0927 39.6648 62.6996 39.0272C62.355 38.8694 62.0784 38.5927 61.9206 38.2481C61.2831 36.855 59.8294 36.0164 58.3048 36.1606C57.9272 36.1966 57.5494 36.0951 57.2406 35.8754C55.992 34.9879 54.314 34.9877 53.0655 35.8754C52.7565 36.0951 52.3777 36.1966 52.0013 36.1604C50.4744 36.0168 49.023 36.855 48.3856 38.248C48.2278 38.5927 47.9512 38.8692 47.6064 39.027C46.2135 39.6646 45.3746 41.1175 45.5189 42.6427C45.5546 43.0202 45.4534 43.398 45.2337 43.7071C44.3462 44.9557 44.3462 46.6335 45.2337 47.882C45.4534 48.1908 45.5546 48.5689 45.5189 48.9463C45.3746 50.4715 46.2135 51.9245 47.6064 52.562C47.6337 52.5744 47.6597 52.5889 47.6859 52.6028L47.1644 53.6959H3.74144C3.3087 53.6959 2.95656 53.3439 2.95656 52.911V10.1268C2.95656 9.69409 3.30857 9.34195 3.74144 9.34195H67.1258C67.5585 9.34195 67.9106 9.69409 67.9106 10.1268V52.911Z" fill="white"/>
<path d="M55.0793 39.51C51.614 39.51 48.7947 42.3293 48.7947 45.7946C48.7947 49.2599 51.614 52.0792 55.0793 52.0792C58.5447 52.0792 61.3639 49.2598 61.3639 45.7946C61.3639 42.3292 58.5447 39.51 55.0793 39.51ZM55.0793 50.0561C52.7294 50.0561 50.8176 48.1443 50.8176 45.7944C50.8176 43.4447 52.7294 41.5329 55.0793 41.5329C57.4291 41.5329 59.3409 43.4447 59.3409 45.7944C59.3409 48.1443 57.4291 50.0561 55.0793 50.0561Z" fill="white"/>
</g>
<defs>
<clipPath id="clip0">
<rect x="0.933594" y="0.790283" width="69" height="69" fill="white"/>
</clipPath>
</defs>
</svg>
