<svg id="Layer_3" data-name="Layer 3" xmlns="http://www.w3.org/2000/svg" viewBox="0 0 480 480"><defs><style>.cls-1{fill:#9bdc50;}.cls-2{fill:#edc35d;}.cls-3{fill:#fbd873;}.cls-4{fill:#f5ba5b;}.cls-5{fill:#fff;}.cls-6{fill:#fbe2a6;}.cls-7{fill:#fcecc3;}.cls-8{fill:#b88b44;}</style></defs><title>award-ribbon</title><path class="cls-1" d="M349.5,317.5A39.9,39.9,0,0,1,312,344a39.39,39.39,0,0,1-17.9-4.42A39.88,39.88,0,0,1,256,368L384,496V424h72Z" transform="translate(-16 -16)"/><path class="cls-2" d="M16,192a46.12,46.12,0,0,0,30.14-32.54L48,152l1.86,7.46A46.12,46.12,0,0,0,80,192a46.12,46.12,0,0,0-30.14,32.54L48,232l-1.86-7.46A46.12,46.12,0,0,0,16,192Z" transform="translate(-16 -16)"/><path class="cls-2" d="M224,56a46.12,46.12,0,0,0,30.14-32.54L256,16l1.86,7.46A46.12,46.12,0,0,0,288,56a46.12,46.12,0,0,0-30.14,32.54L256,96l-1.86-7.46A46.12,46.12,0,0,0,224,56Z" transform="translate(-16 -16)"/><path class="cls-3" d="M432,192a46.12,46.12,0,0,0,30.14-32.54L464,152l1.86,7.46A46.12,46.12,0,0,0,496,192a46.12,46.12,0,0,0-30.14,32.54L464,232l-1.86-7.46A46.12,46.12,0,0,0,432,192Z" transform="translate(-16 -16)"/><path class="cls-4" d="M376,248a39.88,39.88,0,0,0-28.42-38.1A39.39,39.39,0,0,0,352,192a40,40,0,0,0-40-40,39.39,39.39,0,0,0-17.9,4.42,39.75,39.75,0,0,0-76.2,0A39.39,39.39,0,0,0,200,152a40,40,0,0,0-40,40,39.39,39.39,0,0,0,4.42,17.9,39.75,39.75,0,0,0,0,76.2A39.39,39.39,0,0,0,160,304a40,40,0,0,0,40,40,39.39,39.39,0,0,0,17.9-4.42,39.75,39.75,0,0,0,76.2,0A39.39,39.39,0,0,0,312,344a40,40,0,0,0,40-40,39.39,39.39,0,0,0-4.42-17.9A39.88,39.88,0,0,0,376,248Z" transform="translate(-16 -16)"/><path class="cls-5" d="M384,435.31V424h11.31l-80.25-80.25c-1,.08-2,.25-3.06.25a39.39,39.39,0,0,1-17.9-4.42,39.83,39.83,0,0,1-1.64,4.18Z" transform="translate(-16 -16)"/><path class="cls-1" d="M162.5,317.5A39.9,39.9,0,0,0,200,344a39.39,39.39,0,0,0,17.9-4.42A39.88,39.88,0,0,0,256,368L128,496V424H56Z" transform="translate(-16 -16)"/><circle class="cls-6" cx="240" cy="232" r="80"/><path class="cls-7" d="M176,248a79.56,79.56,0,0,0,5.38,28.66A108.87,108.87,0,0,0,208,280c53,0,96-37.61,96-84a74.56,74.56,0,0,0-1.23-12.82A79.91,79.91,0,0,0,176,248Z" transform="translate(-16 -16)"/><path class="cls-8" d="M240,280a8,8,0,0,1-5.66-2.34l-16-16,11.32-11.32L240,260.69l42.34-42.35,11.32,11.32-48,48A8,8,0,0,1,240,280Z" transform="translate(-16 -16)"/><path class="cls-5" d="M128,424v11.31l91.54-91.55a39.83,39.83,0,0,1-1.64-4.18A39.39,39.39,0,0,1,200,344c-1.05,0-2.05-.17-3.07-.25L116.68,424Z" transform="translate(-16 -16)"/></svg>