<svg width="60" height="60" viewBox="0 0 60 60" fill="none" xmlns="http://www.w3.org/2000/svg">
<g clip-path="url(#clip0)">
<path d="M58.4633 2.55162H1.34625C0.826197 2.55162 0.404785 2.97303 0.404785 3.49309V55.5888C0.404785 56.1089 0.826197 56.5303 1.34625 56.5303H58.4633C58.9834 56.5303 59.4048 56.1089 59.4048 55.5888V3.49309C59.4048 2.97303 58.9834 2.55162 58.4633 2.55162ZM57.5219 54.6474H2.28771V11.9665H57.5219V54.6474ZM57.5219 10.0836H2.28771V4.43467H57.5219V10.0836Z" fill="white"/>
<path d="M54.6973 45.2325C55.2174 45.2325 55.6388 44.8111 55.6388 44.291V14.791C55.6388 14.271 55.2174 13.8496 54.6973 13.8496H5.11218C4.59213 13.8496 4.17072 14.271 4.17072 14.791V51.823C4.17072 52.343 4.59213 52.7644 5.11218 52.7644H54.6973C55.2174 52.7644 55.6388 52.343 55.6388 51.823V48.057C55.6388 47.5369 55.2174 47.1155 54.6973 47.1155C54.1772 47.1155 53.7558 47.5369 53.7558 48.057V50.8815H6.05364V15.7325H53.7557V44.291C53.7558 44.8111 54.1772 45.2325 54.6973 45.2325Z" fill="white"/>
<path d="M16.724 19.1847C15.1666 19.1847 13.8995 20.4518 13.8995 22.0092V24.5198C13.8995 26.0772 15.1666 27.3443 16.724 27.3443C18.2814 27.3443 19.5485 26.0772 19.5485 24.5198V22.0092C19.5485 20.4518 18.2814 19.1847 16.724 19.1847ZM17.6655 24.5198C17.6655 25.039 17.2431 25.4613 16.724 25.4613C16.2047 25.4613 15.7825 25.0389 15.7825 24.5198V22.0092C15.7825 21.4899 16.2049 21.0677 16.724 21.0677C17.2432 21.0677 17.6655 21.4901 17.6655 22.0092V24.5198Z" fill="white"/>
<path d="M22.3728 19.1847C21.8527 19.1847 21.4313 19.6061 21.4313 20.1261V26.4027C21.4313 26.9228 21.8527 27.3442 22.3728 27.3442C22.8929 27.3442 23.3143 26.9228 23.3143 26.4027V20.1261C23.3144 19.6061 22.893 19.1847 22.3728 19.1847Z" fill="white"/>
<path d="M28.0218 19.1847C26.4644 19.1847 25.1973 20.4518 25.1973 22.0092V24.5198C25.1973 26.0772 26.4644 27.3443 28.0218 27.3443C29.5792 27.3443 30.8464 26.0772 30.8464 24.5198V22.0092C30.8462 20.4518 29.5791 19.1847 28.0218 19.1847ZM28.9633 24.5198C28.9633 25.039 28.541 25.4613 28.0218 25.4613C27.5026 25.4613 27.0804 25.0389 27.0804 24.5198V22.0092C27.0804 21.4899 27.5027 21.0677 28.0218 21.0677C28.5411 21.0677 28.9633 21.4901 28.9633 22.0092V24.5198Z" fill="white"/>
<path d="M33.6708 19.1847C33.1507 19.1847 32.7293 19.6061 32.7293 20.1261V26.4027C32.7293 26.9228 33.1507 27.3442 33.6708 27.3442C34.1908 27.3442 34.6122 26.9228 34.6122 26.4027V20.1261C34.6122 19.6061 34.1908 19.1847 33.6708 19.1847Z" fill="white"/>
<path d="M37.4367 19.1847C36.9167 19.1847 36.4952 19.6061 36.4952 20.1261V26.4027C36.4952 26.9228 36.9167 27.3442 37.4367 27.3442C37.9568 27.3442 38.3782 26.9228 38.3782 26.4027V20.1261C38.3782 19.6061 37.9568 19.1847 37.4367 19.1847Z" fill="white"/>
<path d="M43.0856 19.1847C41.5282 19.1847 40.2611 20.4518 40.2611 22.0092V24.5198C40.2611 26.0772 41.5282 27.3443 43.0856 27.3443C44.643 27.3443 45.9101 26.0772 45.9101 24.5198V22.0092C45.9101 20.4518 44.643 19.1847 43.0856 19.1847ZM44.0271 24.5198C44.0271 25.039 43.6047 25.4613 43.0856 25.4613C42.5664 25.4613 42.1442 25.0389 42.1442 24.5198V22.0092C42.1442 21.4899 42.5665 21.0677 43.0856 21.0677C43.6049 21.0677 44.0271 21.4901 44.0271 22.0092V24.5198Z" fill="white"/>
<path d="M20.4899 39.2698C18.9325 39.2698 17.6654 40.5369 17.6654 42.0943V44.6049C17.6654 46.1623 18.9325 47.4294 20.4899 47.4294C22.0473 47.4294 23.3144 46.1623 23.3144 44.6049V42.0943C23.3144 40.5369 22.0472 39.2698 20.4899 39.2698ZM21.4314 44.6048C21.4314 45.1241 21.009 45.5463 20.4899 45.5463C19.9707 45.5463 19.5485 45.1239 19.5485 44.6048V42.0942C19.5485 41.575 19.9708 41.1527 20.4899 41.1527C21.0092 41.1527 21.4314 41.5751 21.4314 42.0942V44.6048Z" fill="white"/>
<path d="M14.8409 39.2698C14.3209 39.2698 13.8995 39.6912 13.8995 40.2113V46.4879C13.8995 47.0079 14.3209 47.4293 14.8409 47.4293C15.361 47.4293 15.7824 47.0079 15.7824 46.4879V40.2113C15.7824 39.6911 15.361 39.2698 14.8409 39.2698Z" fill="white"/>
<path d="M28.0218 39.2698C26.4644 39.2698 25.1973 40.5369 25.1973 42.0943V44.6049C25.1973 46.1623 26.4644 47.4294 28.0218 47.4294C29.5792 47.4294 30.8464 46.1623 30.8464 44.6049V42.0943C30.8462 40.5369 29.5791 39.2698 28.0218 39.2698ZM28.9633 44.6048C28.9633 45.1241 28.541 45.5463 28.0218 45.5463C27.5026 45.5463 27.0804 45.1239 27.0804 44.6048V42.0942C27.0804 41.575 27.5027 41.1527 28.0218 41.1527C28.5411 41.1527 28.9633 41.5751 28.9633 42.0942V44.6048Z" fill="white"/>
<path d="M33.6708 39.2698C33.1507 39.2698 32.7293 39.6912 32.7293 40.2113V46.4879C32.7293 47.0079 33.1507 47.4293 33.6708 47.4293C34.1908 47.4293 34.6122 47.0079 34.6122 46.4879V40.2113C34.6122 39.6911 34.1908 39.2698 33.6708 39.2698Z" fill="white"/>
<path d="M37.4367 39.2698C36.9167 39.2698 36.4952 39.6912 36.4952 40.2113V46.4879C36.4952 47.0079 36.9167 47.4293 37.4367 47.4293C37.9568 47.4293 38.3782 47.0079 38.3782 46.4879V40.2113C38.3782 39.6911 37.9568 39.2698 37.4367 39.2698Z" fill="white"/>
<path d="M43.0856 39.2698C41.5282 39.2698 40.2611 40.5369 40.2611 42.0943V44.6049C40.2611 46.1623 41.5282 47.4294 43.0856 47.4294C44.643 47.4294 45.9101 46.1623 45.9101 44.6049V42.0943C45.9101 40.5369 44.643 39.2698 43.0856 39.2698ZM44.0271 44.6048C44.0271 45.1241 43.6047 45.5463 43.0856 45.5463C42.5664 45.5463 42.1442 45.1239 42.1442 44.6048V42.0942C42.1442 41.575 42.5665 41.1527 43.0856 41.1527C43.6049 41.1527 44.0271 41.5751 44.0271 42.0942V44.6048Z" fill="white"/>
<path d="M43.0856 29.2272C41.5282 29.2272 40.2611 30.4944 40.2611 32.0517V34.5624C40.2611 36.1197 41.5282 37.3869 43.0856 37.3869C44.643 37.3869 45.9101 36.1197 45.9101 34.5624V32.0517C45.9101 30.4944 44.643 29.2272 43.0856 29.2272ZM44.0271 34.5622C44.0271 35.0815 43.6047 35.5037 43.0856 35.5037C42.5664 35.5037 42.1442 35.0814 42.1442 34.5622V32.0516C42.1442 31.5324 42.5665 31.1102 43.0856 31.1102C43.6049 31.1102 44.0271 31.5325 44.0271 32.0516V34.5622Z" fill="white"/>
<path d="M37.4367 29.2272C36.9167 29.2272 36.4952 29.6486 36.4952 30.1687V36.4453C36.4952 36.9653 36.9167 37.3867 37.4367 37.3867C37.9568 37.3867 38.3782 36.9653 38.3782 36.4453V30.1687C38.3782 29.6486 37.9568 29.2272 37.4367 29.2272Z" fill="white"/>
<path d="M31.7877 29.2272C30.2303 29.2272 28.9632 30.4944 28.9632 32.0517V34.5624C28.9632 36.1197 30.2303 37.3869 31.7877 37.3869C33.3451 37.3869 34.6122 36.1197 34.6122 34.5624V32.0517C34.6122 30.4944 33.3451 29.2272 31.7877 29.2272ZM32.7293 34.5622C32.7293 35.0815 32.3069 35.5037 31.7878 35.5037C31.2686 35.5037 30.8464 35.0814 30.8464 34.5622V32.0516C30.8464 31.5324 31.2687 31.1102 31.7878 31.1102C32.3071 31.1102 32.7293 31.5325 32.7293 32.0516V34.5622Z" fill="white"/>
<path d="M26.1388 29.2272C25.6187 29.2272 25.1973 29.6486 25.1973 30.1687V36.4453C25.1973 36.9653 25.6187 37.3867 26.1388 37.3867C26.6588 37.3867 27.0803 36.9653 27.0803 36.4453V30.1687C27.0803 29.6486 26.6588 29.2272 26.1388 29.2272Z" fill="white"/>
<path d="M22.3728 29.2272C21.8527 29.2272 21.4313 29.6486 21.4313 30.1687V36.4453C21.4313 36.9653 21.8527 37.3867 22.3728 37.3867C22.8929 37.3867 23.3143 36.9653 23.3143 36.4453V30.1687C23.3144 29.6486 22.893 29.2272 22.3728 29.2272Z" fill="white"/>
<path d="M16.724 29.2272C15.1666 29.2272 13.8995 30.4944 13.8995 32.0517V34.5624C13.8995 36.1197 15.1666 37.3869 16.724 37.3869C18.2814 37.3869 19.5485 36.1197 19.5485 34.5624V32.0517C19.5485 30.4944 18.2814 29.2272 16.724 29.2272ZM17.6655 34.5622C17.6655 35.0815 17.2431 35.5037 16.724 35.5037C16.2047 35.5037 15.7825 35.0814 15.7825 34.5622V32.0516C15.7825 31.5324 16.2049 31.1102 16.724 31.1102C17.2432 31.1102 17.6655 31.5325 17.6655 32.0516V34.5622Z" fill="white"/>
<path d="M49.9899 8.20053C50.5099 8.20053 50.9314 7.77902 50.9314 7.25906C50.9314 6.7391 50.5099 6.3176 49.9899 6.3176C49.47 6.3176 49.0485 6.7391 49.0485 7.25906C49.0485 7.77902 49.47 8.20053 49.9899 8.20053Z" fill="white"/>
<path d="M46.2239 8.20053C46.7439 8.20053 47.1654 7.77902 47.1654 7.25906C47.1654 6.7391 46.7439 6.3176 46.2239 6.3176C45.704 6.3176 45.2825 6.7391 45.2825 7.25906C45.2825 7.77902 45.704 8.20053 46.2239 8.20053Z" fill="white"/>
<path d="M53.7559 8.20053C54.2759 8.20053 54.6974 7.77902 54.6974 7.25906C54.6974 6.7391 54.2759 6.3176 53.7559 6.3176C53.236 6.3176 52.8145 6.7391 52.8145 7.25906C52.8145 7.77902 53.236 8.20053 53.7559 8.20053Z" fill="white"/>
</g>
<defs>
<clipPath id="clip0">
<rect x="0.404785" y="0.0410156" width="59" height="59" fill="white"/>
</clipPath>
</defs>
</svg>
