<svg width="67" height="21" viewBox="0 0 67 21" fill="none" xmlns="http://www.w3.org/2000/svg">
<path d="M19.2194 8.0366C18.7975 3.16586 15.2307 0.404496 10.2833 0.404496C4.99066 0.404496 0.810258 3.9329 0.810258 10.4911C0.810258 17.0206 4.8756 20.5778 10.2833 20.5778C16.0361 20.5778 18.9509 16.5892 19.2194 13.2525L13.8117 13.2142C13.5432 14.8921 12.3543 15.9372 10.3983 15.9372C7.79996 15.9372 6.29463 14.0963 6.29463 10.4911C6.29463 7.07779 7.75202 5.04512 10.4367 5.04512C12.4885 5.04512 13.6583 6.25322 13.8117 8.0366H19.2194ZM32.2232 6.80933H37.324C37.3048 2.95492 34.3325 0.404496 29.5769 0.404496C24.9075 0.404496 21.6092 2.91657 21.6379 6.65592C21.6284 9.7241 23.7569 11.4308 27.2374 12.1786L29.1933 12.6005C31.3794 13.0799 32.1273 13.6264 32.1465 14.5181C32.1273 15.4865 31.2452 16.1673 29.5385 16.1673C27.4962 16.1673 26.2882 15.2085 26.2019 13.4059H21.1394C21.1585 18.3342 24.4952 20.5394 29.6152 20.5394C34.5914 20.5394 37.5733 18.3917 37.5925 14.5181C37.5733 11.5267 35.7899 9.42687 31.4561 8.49683L29.8453 8.15166C27.9852 7.75854 27.1511 7.21202 27.199 6.27239C27.2086 5.40947 27.9277 4.77665 29.5769 4.77665C31.3027 4.77665 32.1177 5.53411 32.2232 6.80933ZM39.6587 20.3093H54.7312V16.0522H47.0607V15.9372L48.9016 14.4031C53.3792 10.6733 54.5202 8.73653 54.5202 6.46415C54.5202 2.80151 51.5192 0.404496 46.8114 0.404496C42.2379 0.404496 39.2656 2.94533 39.2752 7.07779H44.3377C44.3281 5.42864 45.3349 4.50819 46.8114 4.50819C48.2784 4.50819 49.3235 5.41906 49.3235 6.92438C49.3235 8.31465 48.4318 9.21593 46.984 10.4144L39.6587 16.4741V20.3093ZM66.4717 0.672962H61.1024C61.1024 2.53305 59.2328 4.12467 57.0371 4.12467V8.30506C59.1561 8.30506 60.4217 7.56678 60.949 6.84768H61.1408V20.3093H66.4717V0.672962Z" fill="white"/>
</svg>
