<svg width="184" height="161" viewBox="0 0 184 161" fill="none" xmlns="http://www.w3.org/2000/svg">
<path d="M107.203 127.695H75.8199L68.4308 155.344H114.593L107.203 127.695Z" fill="#02227D"/>
<path d="M0.0117188 102.94V128.645C0.0117188 129.619 0.366831 130.553 0.999017 131.241C1.6312 131.93 2.48867 132.317 3.38271 132.317H179.638C180.533 132.317 181.39 131.93 182.023 131.241C182.655 130.553 183.011 129.619 183.012 128.645V102.94H0.0117188Z" fill="#C6E949"/>
<path d="M179.638 0.0751953H3.38271C2.48867 0.0751953 1.6312 0.462033 0.999017 1.15062C0.366831 1.83922 0.0117188 2.77316 0.0117188 3.74698V102.94H183.012V3.74698C183.011 2.77292 182.655 1.83897 182.023 1.15046C181.39 0.461946 180.533 0.0751951 179.638 0.0751953Z" fill="#02227D"/>
<path d="M175.084 7.92529H7.93726V102.938H175.084V7.92529Z" fill="white"/>
<path d="M128.433 157.104C128.434 157.599 128.344 158.089 128.17 158.547C127.996 159.005 127.742 159.42 127.42 159.771C127.099 160.121 126.717 160.399 126.297 160.589C125.877 160.778 125.427 160.876 124.973 160.876H58.0446C57.5897 160.876 57.1393 160.779 56.7191 160.589C56.2988 160.4 55.917 160.122 55.5953 159.772C55.2737 159.421 55.0186 159.005 54.8446 158.548C54.6707 158.09 54.5811 157.599 54.5813 157.104C54.5815 156.609 54.6712 156.118 54.8453 155.661C55.0195 155.203 55.2746 154.788 55.5962 154.438C55.9178 154.088 56.2996 153.81 56.7197 153.621C57.1398 153.431 57.5899 153.334 58.0446 153.334H124.973C125.89 153.334 126.771 153.731 127.42 154.438C128.069 155.145 128.433 156.104 128.433 157.104Z" fill="#C6E949"/>
<path d="M30.0789 25.9506H30.0371L27.5949 27.3871L27.2258 25.8072L30.3016 24.0195H31.9219V39.3244H30.0826L30.0789 25.9506Z" fill="#02227D"/>
<path d="M46.3778 31.5063C46.3778 36.7098 44.605 39.5842 41.4899 39.5842C38.7451 39.5842 36.8873 36.7795 36.8418 31.7207C36.8418 26.5843 38.873 23.7607 41.7298 23.7607C44.6923 23.7607 46.3778 26.6352 46.3778 31.5063ZM38.75 31.7448C38.75 35.7221 39.8757 37.9815 41.603 37.9815C43.5481 37.9815 44.4783 35.5144 44.4783 31.6014C44.4783 27.8345 43.5924 25.3648 41.6252 25.3648C39.9581 25.3634 38.7451 27.5719 38.7451 31.7435L38.75 31.7448Z" fill="#02227D"/>
<path d="M57.4664 31.5063C57.4664 36.7098 55.6936 39.5842 52.5785 39.5842C49.8337 39.5842 47.9759 36.7795 47.9304 31.7207C47.9304 26.5843 49.9629 23.7607 52.8159 23.7607C55.7809 23.7607 57.4664 26.6352 57.4664 31.5063ZM49.8386 31.7448C49.8386 35.7221 50.9619 37.9815 52.6917 37.9815C54.6367 37.9815 55.5668 35.5144 55.5668 31.6014C55.5668 27.8345 54.6798 25.3648 52.7138 25.3648C51.0443 25.3634 49.8337 27.5719 49.8337 31.7435L49.8386 31.7448Z" fill="#02227D"/>
<path d="M63.3447 25.9506H63.3017L60.8583 27.3871L60.4893 25.8072L63.5576 24.0195H65.1779V39.3244H63.3411L63.3447 25.9506Z" fill="#02227D"/>
<path d="M79.6487 31.5063C79.6487 36.7098 77.8758 39.5842 74.7632 39.5842C72.0184 39.5842 70.1606 36.7795 70.1151 31.7207C70.1151 26.5843 72.1463 23.7607 75.0006 23.7607C77.957 23.7607 79.6487 26.6352 79.6487 31.5063ZM72.0209 31.7448C72.0209 35.7221 73.1441 37.9815 74.8739 37.9815C76.819 37.9815 77.7491 35.5144 77.7491 31.6014C77.7491 27.8345 76.862 25.3648 74.896 25.3648C73.2228 25.3634 72.0122 27.5719 72.0122 31.7435L72.0209 31.7448Z" fill="#02227D"/>
<path d="M85.5233 25.9506H85.479L83.0368 27.3871L82.6677 25.8072L85.7361 24.0195H87.3564V39.3244H85.5195L85.5233 25.9506Z" fill="#02227D"/>
<path d="M96.607 25.9506H96.5627L94.1206 27.3871L93.7515 25.8072L96.8272 24.0195H98.4525V39.3244H96.607V25.9506Z" fill="#02227D"/>
<path d="M107.702 25.9505H107.658L105.216 27.3871L104.846 25.8072L107.915 24.0142H109.535V39.319H107.698L107.702 25.9505Z" fill="#02227D"/>
<path d="M124.002 31.5063C124.002 36.7098 122.229 39.5842 119.117 39.5842C116.369 39.5842 114.512 36.7795 114.469 31.7207C114.469 26.5843 116.501 23.7607 119.354 23.7607C122.315 23.7607 124.002 26.6352 124.002 31.5063ZM116.374 31.7448C116.374 35.7221 117.5 37.9815 119.23 37.9815C121.175 37.9815 122.105 35.5144 122.105 31.6014C122.105 27.8345 121.218 25.3648 119.249 25.3648C117.581 25.3634 116.369 27.5719 116.369 31.7435L116.374 31.7448Z" fill="#02227D"/>
<path d="M129.88 25.9506H129.836L127.394 27.3871L127.025 25.8072L130.101 24.0195H131.721V39.3244H129.884L129.88 25.9506Z" fill="#02227D"/>
<path d="M140.965 25.9506H140.922L138.48 27.3871L138.111 25.8072L141.187 24.0195H142.807V39.3244H140.968L140.965 25.9506Z" fill="#02227D"/>
<path d="M157.267 31.5063C157.267 36.7098 155.494 39.5842 152.381 39.5842C149.634 39.5842 147.776 36.7795 147.732 31.7207C147.732 26.5843 149.764 23.7607 152.62 23.7607C155.581 23.7607 157.267 26.6352 157.267 31.5063ZM149.639 31.7448C149.639 35.7221 150.765 37.9815 152.492 37.9815C154.437 37.9815 155.367 35.5144 155.367 31.6014C155.367 27.8345 154.481 25.3648 152.514 25.3648C150.847 25.3634 149.634 27.5719 149.634 31.7435L149.639 31.7448Z" fill="#02227D"/>
<path d="M30.0789 49.8211H30.0371L27.5949 51.2576L27.2258 49.6763L30.3016 47.8914H31.9219V63.1962H30.0826L30.0789 49.8211Z" fill="#02227D"/>
<path d="M41.1663 49.8211H41.1233L38.6799 51.2576L38.3108 49.6763L41.3865 47.8914H43.0044V63.1962H41.1675L41.1663 49.8211Z" fill="#02227D"/>
<path d="M57.4664 55.377C57.4664 60.5805 55.6936 63.4549 52.5785 63.4549C49.8337 63.4549 47.9759 60.6502 47.9304 55.5901C47.9304 50.4563 49.9629 47.6328 52.8159 47.6328C55.7809 47.6315 57.4664 50.5059 57.4664 55.377ZM49.8386 55.6156C49.8386 59.5929 50.9619 61.8522 52.6917 61.8522C54.6367 61.8522 55.5668 59.3825 55.5668 55.4722C55.5668 51.7053 54.6798 49.2328 52.7138 49.2328C51.0443 49.2315 49.8337 51.4426 49.8337 55.6142L49.8386 55.6156Z" fill="#02227D"/>
<path d="M63.3447 49.8211H63.3017L60.8583 51.2576L60.4893 49.6763L63.5576 47.8914H65.1779V63.1962H63.3411L63.3447 49.8211Z" fill="#02227D"/>
<path d="M79.6487 55.377C79.6487 60.5805 77.8758 63.4549 74.7632 63.4549C72.0184 63.4549 70.1606 60.6502 70.1151 55.5901C70.1151 50.4563 72.1463 47.6328 75.0006 47.6328C77.957 47.6315 79.6487 50.5059 79.6487 55.377ZM72.0209 55.6156C72.0209 59.5929 73.1441 61.8522 74.8739 61.8522C76.819 61.8522 77.7491 59.3825 77.7491 55.4722C77.7491 51.7053 76.862 49.2328 74.896 49.2328C73.2228 49.2315 72.0122 51.4426 72.0122 55.6142L72.0209 55.6156Z" fill="#02227D"/>
<path d="M85.5233 49.8211H85.479L83.0368 51.2576L82.6677 49.6763L85.7361 47.8914H87.3564V63.1962H85.5195L85.5233 49.8211Z" fill="#02227D"/>
<path d="M101.823 55.377C101.823 60.5805 100.051 63.4549 96.938 63.4549C94.1907 63.4549 92.333 60.6502 92.2899 55.5901C92.2899 50.4563 94.3211 47.6328 97.1754 47.6328C100.137 47.6315 101.823 50.5059 101.823 55.377ZM94.1957 55.6156C94.1957 59.5929 95.3214 61.8522 97.0511 61.8522C98.9962 61.8522 99.9263 59.3825 99.9263 55.4722C99.9263 51.7053 99.0393 49.2328 97.0708 49.2328C95.4025 49.2315 94.1907 51.4426 94.1907 55.6142L94.1957 55.6156Z" fill="#02227D"/>
<path d="M107.702 49.8211H107.658L105.216 51.2576L104.846 49.6763L107.915 47.8914H109.535V63.1962H107.698L107.702 49.8211Z" fill="#02227D"/>
<path d="M124.002 55.377C124.002 60.5805 122.229 63.4549 119.117 63.4549C116.369 63.4549 114.512 60.6502 114.469 55.5901C114.469 50.4563 116.501 47.6328 119.354 47.6328C122.315 47.6315 124.002 50.5059 124.002 55.377ZM116.374 55.6156C116.374 59.5929 117.5 61.8522 119.23 61.8522C121.175 61.8522 122.105 59.3825 122.105 55.4722C122.105 51.7053 121.218 49.2328 119.249 49.2328C117.581 49.2315 116.369 51.4426 116.369 55.6142L116.374 55.6156Z" fill="#02227D"/>
<path d="M129.88 49.8211H129.836L127.394 51.2576L127.025 49.6763L130.101 47.8914H131.721V63.1962H129.884L129.88 49.8211Z" fill="#02227D"/>
<path d="M146.178 55.377C146.178 60.5805 144.405 63.4549 141.293 63.4549C138.545 63.4549 136.688 60.6502 136.645 55.5901C136.645 50.4563 138.676 47.6328 141.53 47.6328C144.491 47.6315 146.178 50.5059 146.178 55.377ZM138.55 55.6156C138.55 59.5929 139.676 61.8522 141.403 61.8522C143.348 61.8522 144.279 59.3825 144.279 55.4722C144.279 51.7053 143.393 49.2328 141.425 49.2328C139.757 49.2315 138.545 51.4426 138.545 55.6142L138.55 55.6156Z" fill="#02227D"/>
<path d="M157.267 55.377C157.267 60.5805 155.494 63.4549 152.381 63.4549C149.634 63.4549 147.776 60.6502 147.732 55.5901C147.732 50.4563 149.764 47.6328 152.62 47.6328C155.581 47.6315 157.267 50.5059 157.267 55.377ZM149.639 55.6156C149.639 59.5929 150.765 61.8522 152.492 61.8522C154.437 61.8522 155.367 59.3825 155.367 55.4722C155.367 51.7053 154.481 49.2328 152.514 49.2328C150.847 49.2315 149.634 51.4426 149.634 55.6142L149.639 55.6156Z" fill="#02227D"/>
<path d="M35.2904 79.2462C35.2904 84.4496 33.5175 87.3241 30.4049 87.3241C27.6576 87.3241 25.7999 84.5193 25.7556 79.4593C25.7556 74.3255 27.7868 71.502 30.6435 71.502C33.6048 71.502 35.2904 74.3764 35.2904 79.2462ZM27.6626 79.4847C27.6626 83.462 28.7882 85.7214 30.5156 85.7214C32.4607 85.7214 33.3908 83.2516 33.3908 79.3413C33.3908 75.5717 32.505 73.102 30.5377 73.102C28.8707 73.102 27.6551 75.3131 27.6551 79.4847H27.6626Z" fill="#02227D"/>
<path d="M41.1663 73.6917H41.1233L38.6799 75.1282L38.3108 73.5469L41.3865 71.762H43.0044V87.0668H41.1675L41.1663 73.6917Z" fill="#02227D"/>
<path d="M52.2549 73.6917H52.2131L49.7697 75.1282L49.4006 73.5469L52.4764 71.762H54.0942V87.0668H52.2573L52.2549 73.6917Z" fill="#02227D"/>
<path d="M63.3447 73.6917H63.3017L60.8583 75.1282L60.4893 73.5469L63.5576 71.762H65.1779V87.0668H63.3411L63.3447 73.6917Z" fill="#02227D"/>
<path d="M74.4334 73.6917H74.3916L71.9482 75.1282L71.5791 73.5469L74.6548 71.762H76.2752V87.0668H74.4383L74.4334 73.6917Z" fill="#02227D"/>
<path d="M90.7335 79.2462C90.7335 84.4496 88.9607 87.3241 85.848 87.3241C83.1008 87.3241 81.2455 84.5193 81.2 79.4593C81.2 74.3255 83.2324 71.502 86.0855 71.502C89.0468 71.502 90.7335 74.3764 90.7335 79.2462ZM83.1057 79.4847C83.1057 83.462 84.2314 85.7214 85.9612 85.7214C87.9063 85.7214 88.8364 83.2516 88.8364 79.3413C88.8364 75.5717 87.9493 73.102 85.9833 73.102C84.3126 73.102 83.1008 75.3131 83.1008 79.4847H83.1057Z" fill="#02227D"/>
<path d="M101.823 79.2462C101.823 84.4496 100.051 87.3241 96.9379 87.3241C94.1906 87.3241 92.3329 84.5193 92.2898 79.4593C92.2898 74.3255 94.321 71.502 97.1753 71.502C100.137 71.502 101.823 74.3764 101.823 79.2462ZM94.1955 79.4847C94.1955 83.462 95.3212 85.7214 97.051 85.7214C98.9961 85.7214 99.9262 83.2516 99.9262 79.3413C99.9262 75.5717 99.0392 73.102 97.0707 73.102C95.4024 73.102 94.1906 75.3131 94.1906 79.4847H94.1955Z" fill="#02227D"/>
<path d="M112.912 79.2462C112.912 84.4496 111.139 87.3241 108.027 87.3241C105.279 87.3241 103.422 84.5193 103.379 79.4593C103.379 74.3255 105.41 71.502 108.264 71.502C111.225 71.502 112.912 74.3764 112.912 79.2462ZM105.284 79.4847C105.284 83.462 106.41 85.7214 108.14 85.7214C110.085 85.7214 111.015 83.2516 111.015 79.3413C111.015 75.5717 110.128 73.102 108.159 73.102C106.491 73.102 105.278 75.3131 105.278 79.4847H105.284Z" fill="#02227D"/>
<path d="M124.002 79.2462C124.002 84.4496 122.229 87.3241 119.116 87.3241C116.369 87.3241 114.511 84.5193 114.468 79.4593C114.468 74.3255 116.501 71.502 119.354 71.502C122.315 71.502 124.002 74.3764 124.002 79.2462ZM116.374 79.4847C116.374 83.462 117.5 85.7214 119.23 85.7214C121.175 85.7214 122.105 83.2516 122.105 79.3413C122.105 75.5717 121.218 73.102 119.249 73.102C117.581 73.102 116.369 75.3131 116.369 79.4847H116.374Z" fill="#02227D"/>
<path d="M129.879 73.6917H129.835L127.393 75.1282L127.024 73.5469L130.099 71.762H131.72V87.0668H129.883L129.879 73.6917Z" fill="#02227D"/>
<path d="M146.178 79.2462C146.178 84.4496 144.405 87.3241 141.292 87.3241C138.545 87.3241 136.687 84.5193 136.644 79.4593C136.644 74.3255 138.676 71.502 141.53 71.502C144.491 71.502 146.178 74.3764 146.178 79.2462ZM138.55 79.4847C138.55 83.462 139.676 85.7214 141.403 85.7214C143.348 85.7214 144.278 83.2516 144.278 79.3413C144.278 75.5717 143.393 73.102 141.425 73.102C139.757 73.102 138.545 75.3131 138.545 79.4847H138.55Z" fill="#02227D"/>
<path d="M152.054 73.6917H152.011L149.57 75.1282L149.201 73.5469L152.277 71.762H153.897V87.0668H152.058L152.054 73.6917Z" fill="#02227D"/>
<path d="M96.3363 118.913C96.336 119.954 96.0525 120.972 95.5214 121.837C94.9903 122.702 94.2356 123.376 93.3527 123.774C92.4698 124.173 91.4983 124.276 90.5612 124.073C89.624 123.87 88.7633 123.368 88.0878 122.632C87.4123 121.896 86.9524 120.958 86.7662 119.937C86.58 118.917 86.6759 117.858 87.0418 116.897C87.4077 115.936 88.0272 115.114 88.8218 114.536C89.6165 113.958 90.5506 113.649 91.5062 113.65C92.1406 113.65 92.7688 113.786 93.3549 114.051C93.941 114.315 94.4736 114.703 94.9221 115.192C95.3706 115.681 95.7263 116.261 95.969 116.899C96.2116 117.538 96.3364 118.222 96.3363 118.913Z" fill="#77B331"/>
</svg>
