<svg width="102" height="145" viewBox="0 0 102 145" fill="none" xmlns="http://www.w3.org/2000/svg">
<path d="M86.4025 46.3211L76.0052 79.824L84.8064 83.053L95.2037 49.5501L86.4025 46.3211Z" fill="#979797"/>
<path d="M18.8319 58.2737L12.2351 51.1586L45.3731 9.46216L51.9699 16.5724L18.8319 58.2737Z" fill="#979797"/>
<path d="M13.2496 51.2651L20.1657 51.7909L19.5258 92.5762L12.6096 92.0504L13.2496 51.2651Z" fill="#979797"/>
<path d="M96.5554 131.284H59.6482V139.039H96.5554V131.284Z" fill="#979797"/>
<path d="M100.672 136.074H55.5331C55.2685 136.074 55.054 136.307 55.054 136.595V143.769C55.054 144.057 55.2685 144.29 55.5331 144.29H100.672C100.936 144.29 101.151 144.057 101.151 143.769V136.595C101.151 136.307 100.936 136.074 100.672 136.074Z" fill="#02227D"/>
<path d="M99.6143 131.284V86.1472C99.6143 83.0756 99.0579 80.0341 97.9768 77.1964C96.8958 74.3586 95.3112 71.7802 93.3136 69.6082C91.3161 67.4363 88.9446 65.7134 86.3347 64.538C83.7247 63.3626 80.9274 62.7576 78.1024 62.7576C75.2774 62.7576 72.4801 63.3626 69.8702 64.538C67.2602 65.7134 64.8888 67.4363 62.8912 69.6082C60.8936 71.7802 59.3091 74.3586 58.2281 77.1964C57.147 80.0341 56.5906 83.0756 56.5906 86.1472V131.284H99.6143Z" fill="#C6E949"/>
<path d="M85.7688 93.1301C90.0023 88.527 90.0023 81.0639 85.7688 76.4608C81.5352 71.8577 74.6712 71.8577 70.4377 76.4608C66.2041 81.0639 66.2041 88.527 70.4377 93.1301C74.6712 97.7332 81.5352 97.7332 85.7688 93.1301Z" fill="#02227D"/>
<path d="M83.699 84.8779C83.699 85.9464 83.4075 86.9909 82.8616 87.8793C82.3156 88.7677 81.5396 89.4601 80.6317 89.869C79.7237 90.2779 78.7247 90.3849 77.7609 90.1765C76.797 89.968 75.9117 89.4535 75.2168 88.698C74.5219 87.9424 74.0487 86.9798 73.8569 85.9319C73.6652 84.8839 73.7636 83.7977 74.1397 82.8105C74.5158 81.8234 75.1526 80.9797 75.9697 80.386C76.7869 79.7924 77.7475 79.4756 78.7302 79.4756C79.3828 79.4754 80.029 79.6151 80.6319 79.8865C81.2348 80.1579 81.7826 80.5559 82.244 81.0575C82.7054 81.5592 83.0714 82.1548 83.3211 82.8104C83.5707 83.4659 83.6991 84.1684 83.699 84.8779Z" fill="#77B331"/>
<path d="M36.8191 5.83686C35.9043 7.19769 35.2451 8.74115 34.8791 10.3791C34.5132 12.017 34.4475 13.7172 34.6861 15.3827C34.9246 17.0482 35.4626 18.6463 36.2694 20.0856C37.0761 21.525 38.1357 22.7774 39.3877 23.7714L83.1009 58.4858C85.63 60.4451 88.7675 61.2415 91.833 60.7022C94.8985 60.1629 97.6449 58.3315 99.4767 55.605C101.309 52.8786 102.078 49.4769 101.618 46.1377C101.159 42.7984 99.5071 39.7907 97.0214 37.7668L53.3093 3.04398C50.7818 1.03711 47.6247 0.20392 44.5323 0.727667C41.4399 1.25141 38.6654 3.0892 36.8191 5.83686Z" fill="#C6E949"/>
<path d="M48.5994 7.18641C49.5496 7.94072 50.2727 8.98449 50.6773 10.1857C51.0819 11.3869 51.1497 12.6916 50.8723 13.9347C50.5948 15.1778 49.9845 16.3036 49.1185 17.1695C48.2526 18.0355 47.1699 18.6028 46.0074 18.7997C44.8449 18.9965 43.6548 18.8141 42.5877 18.2755C41.5205 17.7369 40.6242 16.8663 40.0122 15.7738C39.4001 14.6813 39.0999 13.416 39.1493 12.1379C39.1987 10.8598 39.5956 9.6264 40.2898 8.59361C41.2204 7.20925 42.6184 6.28334 44.1767 6.01945C45.7349 5.75557 47.3257 6.17532 48.5994 7.18641Z" fill="#02227D"/>
<path d="M46.6982 10.0129C47.1334 10.3586 47.4645 10.8368 47.6497 11.3872C47.8349 11.9375 47.8658 12.5352 47.7386 13.1046C47.6114 13.6741 47.3317 14.1897 46.935 14.5864C46.5382 14.983 46.0422 15.2428 45.5096 15.3329C44.9771 15.423 44.4318 15.3394 43.943 15.0926C43.4541 14.8459 43.0436 14.447 42.7632 13.9465C42.4828 13.446 42.3453 12.8664 42.3679 12.2809C42.3905 11.6954 42.5723 11.1303 42.8903 10.6572C43.3167 10.0228 43.9574 9.59847 44.6715 9.47764C45.3856 9.35681 46.1146 9.54933 46.6982 10.0129Z" fill="#77B331"/>
<path d="M94.8274 43.8985C95.7777 44.6527 96.501 45.6965 96.9057 46.8977C97.3105 48.0989 97.3785 49.4037 97.1011 50.647C96.8237 51.8902 96.2135 53.0161 95.3475 53.8822C94.4816 54.7482 93.3988 55.3156 92.2362 55.5125C91.0737 55.7094 89.8836 55.527 88.8164 54.9884C87.7492 54.4497 86.8528 53.579 86.2408 52.4864C85.6288 51.3938 85.3286 50.1284 85.3781 48.8502C85.4276 47.572 85.8246 46.3385 86.5189 45.3057C87.4494 43.9217 88.8473 42.996 90.4052 42.7321C91.9632 42.4682 93.5538 42.8878 94.8274 43.8985Z" fill="#02227D"/>
<path d="M92.9284 46.7202C93.364 47.0659 93.6955 47.5443 93.881 48.0949C94.0664 48.6455 94.0975 49.2435 93.9703 49.8133C93.8431 50.3831 93.5634 50.8991 93.1664 51.2961C92.7695 51.693 92.2732 51.9529 91.7403 52.0431C91.2074 52.1333 90.662 52.0496 90.1728 51.8026C89.6837 51.5556 89.2729 51.1565 88.9925 50.6556C88.7121 50.1548 88.5746 49.5748 88.5974 48.9889C88.6202 48.4031 88.8023 47.8378 89.1207 47.3645C89.547 46.73 90.1877 46.3057 90.9018 46.1849C91.6159 46.0641 92.3449 46.2566 92.9284 46.7202Z" fill="#77B331"/>
<path d="M28.9666 123.294L32.5408 122.982L33.9287 98.0279L16.7732 89.7356L17.6224 101.203L29.1604 101.591L28.9666 123.294Z" fill="#02227D"/>
<path d="M5.41367 125.359L8.98688 125.047L5.59875 103.657L16.9307 101.262L16.0815 89.7947L0.364502 100.965L5.41367 125.359Z" fill="#02227D"/>
<path d="M8.33371 94.6372C8.20536 92.9043 8.55247 91.1688 9.33119 89.6504C10.1099 88.1319 11.2852 86.8987 12.7086 86.1065C14.1319 85.3143 15.7393 84.9988 17.3275 85.1999C18.9157 85.4009 20.4135 86.1096 21.6314 87.2361C22.8492 88.3627 23.7324 89.8566 24.1695 91.5289C24.6065 93.2013 24.5776 94.977 24.0865 96.6315C23.5954 98.2861 22.6641 99.7451 21.4104 100.824C20.1567 101.903 18.6368 102.554 17.0431 102.694C14.9056 102.881 12.7872 102.137 11.1539 100.627C9.52059 99.1157 8.50614 96.9613 8.33371 94.6372Z" fill="#C6E949"/>
<path d="M12.3685 94.2839C12.3053 93.4186 12.4794 92.5523 12.8689 91.7946C13.2584 91.0369 13.8459 90.4217 14.557 90.027C15.268 89.6322 16.0707 89.4756 16.8637 89.5768C17.6566 89.6781 18.404 90.0327 19.0116 90.5959C19.6192 91.159 20.0595 91.9054 20.277 92.7406C20.4945 93.5759 20.4792 94.4625 20.2333 95.2883C19.9874 96.1142 19.5218 96.8422 18.8953 97.3803C18.2689 97.9184 17.5097 98.2425 16.7139 98.3115C16.1853 98.3574 15.6536 98.2896 15.1491 98.112C14.6447 97.9344 14.1773 97.6505 13.7738 97.2764C13.3703 96.9024 13.0385 96.4457 12.7974 95.9322C12.5563 95.4187 12.4105 94.8586 12.3685 94.2839Z" fill="#77B331"/>
<path d="M8.33371 50.8293C8.20536 49.0963 8.55247 47.3609 9.33119 45.8425C10.1099 44.3241 11.2852 43.0908 12.7086 42.2986C14.1319 41.5064 15.7393 41.1909 17.3275 41.392C18.9157 41.5931 20.4135 42.3017 21.6314 43.4282C22.8492 44.5548 23.7324 46.0487 24.1695 47.721C24.6065 49.3934 24.5776 51.1691 24.0865 52.8236C23.5954 54.4781 22.6641 55.9371 21.4104 57.0161C20.1567 58.0952 18.6368 58.7458 17.0431 58.8857C15.9846 58.9788 14.9197 58.8442 13.9091 58.4897C12.8985 58.1351 11.9621 57.5675 11.1533 56.8194C10.3445 56.0712 9.67925 55.1571 9.19545 54.1293C8.71166 53.1015 8.41881 51.9801 8.33371 50.8293Z" fill="#C6E949"/>
<path d="M12.3684 50.476C12.3046 49.6107 12.4781 48.7443 12.867 47.9863C13.256 47.2282 13.843 46.6126 14.5538 46.2173C15.2645 45.8219 16.0671 45.6646 16.8601 45.7652C17.6531 45.8657 18.4008 46.2197 19.0088 46.7823C19.6168 47.3449 20.0577 48.0908 20.2758 48.9259C20.4938 49.7609 20.4794 50.6475 20.2341 51.4735C19.9888 52.2996 19.5237 53.028 18.8977 53.5667C18.2717 54.1054 17.5128 54.4302 16.7171 54.5C15.6496 54.5933 14.5918 54.2218 13.7762 53.4672C12.9607 52.7125 12.4543 51.6366 12.3684 50.476Z" fill="#77B331"/>
</svg>
