<?xml version="1.0" encoding="utf-8"?>
<!-- Generator: Adobe Illustrator 21.1.0, SVG Export Plug-In . SVG Version: 6.00 Build 0)  -->
<svg version="1.1" id="Layer_1" xmlns="http://www.w3.org/2000/svg" xmlns:xlink="http://www.w3.org/1999/xlink" x="0px" y="0px"
	 viewBox="0 0 494 494" style="enable-background:new 0 0 494 494;" xml:space="preserve">
<style type="text/css">
	.st0{fill:#87E680;}
	.st1{fill:#00EFD1;}
	.st2{fill:#EA5281;}
	.st3{fill:#252626;}
</style>
<path class="st0" d="M377.2,416.5c2.7-29.8,28.7-51.9,58.6-49.9c29.8,2,52.6,27.5,51.2,57.4c-1.4,29.9-26.3,53.2-56.2,52.5
	c-29.9-0.7-53.8-25.1-53.8-55C377,419.9,377.1,418.2,377.2,416.5z"/>
<path class="st1" d="M402.2,133.8l44.8,64.9h-89.6L402.2,133.8z"/>
<path class="st1" d="M302,180.1c0,14.1-5.5,27.7-15.1,38c-10,10.5-14.7,23.8-12.8,38v0.2h-54.7c1.8-14.1-2.8-28.2-12.6-38.4
	c-9.9-10.4-15.2-24.3-14.9-38.7c0.5-29.1,25.2-53.8,54.3-54.3c14.8-0.2,29,5.5,39.5,15.9C296.1,151.1,302,165.3,302,180.1z"/>
<path class="st2" d="M296.2,416.8c0.1,1.6,0.2,3.1,0.2,4.7c0,30.4-24.6,55-55,55c-30.4,0-55-24.6-55-55c0-1.7,0.1-3.4,0.2-5
	c2.6-28.4,26.4-50.1,54.9-50C270,366.6,293.7,388.4,296.2,416.8z"/>
<path class="st1" d="M136.7,156.2l-44.8,64.9l-44.8-64.9H136.7z"/>
<path class="st0" d="M116.9,416.5c0.2,1.7,0.2,3.3,0.2,5c0,29.9-23.9,54.3-53.8,55c-29.9,0.7-54.8-22.6-56.2-52.5
	c-1.4-29.9,21.4-55.3,51.2-57.4S114.2,386.8,116.9,416.5z"/>
<g>
	<path class="st3" d="M351.2,202c1.2,2.3,3.6,3.7,6.2,3.7h35.8c-5.7,34.7-24.2,66.1-52.4,89.1c-27.3,22.3-61.6,35-94.1,35
		c-43.9,0-90.5-23.6-118.7-60.2c-2.4-3-6.7-3.6-9.8-1.2c-3,2.3-3.6,6.7-1.3,9.8c15.9,20.4,36.2,37,59.4,48.5
		c22.7,11.2,47,17.2,70.3,17.2c35.7,0,73.2-13.9,102.9-38.2c31.5-25.7,51.8-61,57.7-99.9H447c2.6,0,5-1.4,6.2-3.7
		c1.2-2.3,1-5.1-0.4-7.2L408,129.9c-1.3-1.9-3.5-3-5.8-3s-4.5,1.1-5.8,3l-44.8,64.9C350.2,196.9,350,199.7,351.2,202z M402.2,146.2
		l31.5,45.6h-62.9L402.2,146.2z"/>
	<path class="st3" d="M86.2,225.1c1.3,1.9,3.5,3,5.8,3s4.5-1.1,5.8-3l44.8-64.9c1.5-2.1,1.6-4.9,0.4-7.2c-1.2-2.3-3.6-3.7-6.2-3.7
		h-35.8c5.7-34.7,24.2-66.1,52.4-89.1c27.3-22.3,61.6-35,94.1-35c43.9,0,90.5,23.6,118.7,60.2c2.4,3,6.7,3.6,9.8,1.2
		c3-2.3,3.6-6.7,1.3-9.8c-15.9-20.4-36.2-37-59.4-48.5c-22.7-11.2-47-17.2-70.3-17.2c-35.7,0-73.2,13.9-102.9,38.2
		c-31.5,25.7-51.8,61-57.7,99.9H47.1c-2.6,0-5,1.4-6.2,3.7c-1.2,2.3-1,5.1,0.4,7.2L86.2,225.1z M123.4,163.2l-31.5,45.6l-31.5-45.6
		H123.4z"/>
	<path class="st3" d="M184.9,179c-0.4,16.2,5.7,31.9,16.8,43.6c6.8,7.2,10.8,16.7,11,26.6c-3.7,0.4-6.4,3.7-6.2,7.3s3.3,6.6,7,6.6
		h67.1c3.9,0,7-3.1,7-7c0-3.9-3.1-7-7-7c0.2-9.7,4-18.8,11.3-26.4c10.9-11.6,17-26.8,17-42.7c0-34.1-27.5-61.7-61.6-62
		C213.4,117.8,185.5,145,184.9,179L184.9,179z M246.2,131.9h0.7c26.6,0.1,48.1,21.6,48.1,48.2c0,12.3-4.8,24.2-13.2,33.1
		c-9.5,9.6-14.9,22.5-15.1,36h-40c-0.3-13.5-5.6-26.4-14.9-36.3c-8.6-9.1-13.3-21.2-13-33.7C199.3,154,221,132.3,246.2,131.9z"/>
	<path class="st3" d="M226.6,272.5c-3.9,0-7,3.1-7,7c0,3.9,3.1,7,7,7h41c3.9,0,7-3.1,7-7c0-3.9-3.1-7-7-7H226.6z"/>
	<path class="st3" d="M252.7,98.3V75.5c0-3.9-3.1-7-7-7s-7,3.1-7,7v22.8c0,3.9,3.1,7,7,7S252.7,102.2,252.7,98.3z"/>
	<path class="st3" d="M306.6,127.9l16.8-15.8c2.8-2.7,2.9-7.1,0.3-9.9c-2.7-2.8-7.1-2.9-9.9-0.3L297,117.7c-2.8,2.7-2.9,7.1-0.3,9.9
		C299.4,130.4,303.8,130.5,306.6,127.9z"/>
	<path class="st3" d="M180.6,99.5c-1.7-1.8-4.3-2.6-6.8-1.9c-2.4,0.6-4.4,2.5-5,4.9c-0.7,2.4,0,5,1.8,6.8l16.1,16.3
		c1.7,1.8,4.3,2.6,6.8,1.9c2.4-0.6,4.4-2.5,5-4.9c0.7-2.4,0-5-1.8-6.8L180.6,99.5z"/>
	<path class="st3" d="M258.8,404.1c-2.7-2.7-7.2-2.7-9.9,0l-7.5,7.5l-7.5-7.5c-2.7-2.7-7.2-2.7-9.9,0c-2.7,2.7-2.7,7.2,0,9.9
		l7.5,7.5l-7.5,7.5c-2.7,2.7-2.7,7.2,0,9.9s7.2,2.7,9.9,0l7.5-7.5l7.5,7.5c2.7,2.7,7.2,2.7,9.9,0s2.7-7.2,0-9.9l-7.5-7.5l7.5-7.5
		C261.5,411.3,261.5,406.9,258.8,404.1z"/>
	<path class="st3" d="M78.1,404l-21.9,20l-9.5-10.3c-2.6-2.8-7-3-9.9-0.4c-2.8,2.6-3,7-0.4,9.9l14.3,15.5c2.6,2.8,7,3,9.9,0.4
		l27-24.7c2.9-2.6,3-7,0.4-9.9C85.3,401.6,80.9,401.4,78.1,404z"/>
	<path class="st3" d="M432,359.5c-29.6,0-55.1,20.9-60.8,50l-68.9,0.2c-5.6-29.1-31.1-50.2-60.7-50.2c-29.7-0.1-55.2,20.9-61,50H123
		c-6.3-32.3-36.8-54-69.4-49.5c-32.6,4.5-56,33.7-53.4,66.5c2.7,32.8,30.5,57.8,63.4,57c32.9-0.8,59.5-27.1,60.5-60h55.3
		c1,33.4,28.4,60,61.8,60.1c33.4,0.1,60.9-26.4,62.1-59.8l66.7-0.2c1.1,34,29.3,60.7,63.3,60c34-0.7,61-28.7,60.7-62.7
		C493.6,386.9,466,359.5,432,359.5z M62.2,469.6c-25.9,0-47.2-20.6-48-46.5c-0.8-25.9,19.2-47.8,45-49.4s48.4,17.7,50.8,43.5
		c0.1,1.5,0.2,3,0.2,4.4C110.1,448.1,88.7,469.5,62.2,469.6z M241.4,469.6c-26.5,0-48-21.5-48-48c0-1.4,0.1-2.9,0.2-4.4
		c2.2-24.8,23-43.7,47.8-43.6c24.9,0.1,45.5,19.1,47.8,43.9c0.1,1.4,0.2,2.8,0.2,4.2C289.3,448.1,267.9,469.5,241.4,469.6z
		 M432,469.6c-26.5,0-48-21.5-48-48c0-1.4,0.1-2.9,0.2-4.4c2.4-25.8,24.9-45.1,50.7-43.5c25.9,1.6,45.8,23.5,45,49.4
		C479.2,449,457.9,469.6,432,469.6z"/>
	<path class="st3" d="M447.9,404l-21.9,20l-9.5-10.3c-1.7-1.9-4.2-2.7-6.7-2.2c-2.5,0.5-4.4,2.4-5.2,4.8c-0.7,2.4-0.1,5,1.6,6.9
		l14.3,15.5c2.6,2.8,7,3,9.9,0.4l27-24.7c2.9-2.6,3-7,0.4-9.9C455.2,401.6,450.7,401.4,447.9,404z"/>
</g>
</svg>
