<svg width="202" height="138" viewBox="0 0 202 138" fill="none" xmlns="http://www.w3.org/2000/svg">
<path d="M63.0479 108.92C63.0479 112.094 49.1785 114.668 32.0688 114.668C14.9592 114.668 1.08984 112.094 1.08984 108.92C1.08984 105.745 14.9592 103.17 32.0688 103.17C49.1785 103.17 63.0479 105.744 63.0479 108.92Z" fill="#C6E949"/>
<path d="M43.0201 68.77H21.1173V108.736H43.0201V68.77Z" fill="#02227D"/>
<path d="M44.886 108.541C44.886 108.834 44.779 109.114 44.5886 109.321C44.3983 109.528 44.1401 109.645 43.8707 109.645H20.267C19.9976 109.645 19.7392 109.528 19.5487 109.321C19.3582 109.114 19.2511 108.834 19.2509 108.541C19.2511 108.249 19.3582 107.968 19.5487 107.762C19.7392 107.555 19.9976 107.438 20.267 107.438H43.8707C44.1401 107.438 44.3983 107.555 44.5886 107.762C44.779 107.969 44.886 108.249 44.886 108.541Z" fill="#C6E949"/>
<path d="M44.886 101.074C44.886 101.367 44.779 101.647 44.5886 101.854C44.3982 102.061 44.14 102.177 43.8707 102.177H20.267C19.9976 102.177 19.7393 102.061 19.5488 101.854C19.3583 101.647 19.2511 101.367 19.2509 101.074C19.2509 100.782 19.3579 100.501 19.5485 100.294C19.739 100.087 19.9975 99.9709 20.267 99.9709H43.8707C44.0041 99.9709 44.1362 99.9995 44.2595 100.055C44.3827 100.11 44.4946 100.192 44.5889 100.294C44.6832 100.397 44.758 100.518 44.809 100.652C44.8599 100.786 44.8861 100.929 44.886 101.074Z" fill="#C6E949"/>
<path d="M44.886 93.6061C44.886 93.8985 44.779 94.1789 44.5886 94.3858C44.3983 94.5927 44.1401 94.709 43.8707 94.7092H20.267C19.9976 94.709 19.7392 94.5927 19.5487 94.3859C19.3582 94.179 19.2511 93.8986 19.2509 93.6061C19.2509 93.4612 19.2771 93.3178 19.3282 93.1839C19.3793 93.0501 19.4541 92.9285 19.5485 92.826C19.6428 92.7236 19.7549 92.6423 19.8781 92.5869C20.0014 92.5315 20.1335 92.5029 20.267 92.5029H43.8707C44.0041 92.5029 44.1362 92.5315 44.2595 92.5869C44.3827 92.6424 44.4946 92.7236 44.5889 92.8261C44.6832 92.9285 44.758 93.0502 44.809 93.184C44.8599 93.3178 44.8861 93.4613 44.886 93.6061Z" fill="#C6E949"/>
<path d="M44.886 86.1378C44.8861 86.2827 44.8599 86.4261 44.809 86.5599C44.758 86.6938 44.6832 86.8154 44.5889 86.9178C44.4946 87.0203 44.3827 87.1015 44.2595 87.157C44.1362 87.2124 44.0041 87.241 43.8707 87.241H20.267C19.9975 87.241 19.739 87.1247 19.5485 86.9179C19.3579 86.711 19.2509 86.4304 19.2509 86.1378C19.2511 85.8453 19.3582 85.5649 19.5487 85.3581C19.7392 85.1512 19.9976 85.0349 20.267 85.0347H43.8707C44.1401 85.0349 44.3983 85.1513 44.5886 85.3581C44.779 85.565 44.886 85.8454 44.886 86.1378Z" fill="#C6E949"/>
<path d="M44.8861 78.6704C44.8861 78.9627 44.7791 79.2431 44.5887 79.4499C44.3983 79.6566 44.1401 79.7727 43.8709 79.7727H20.2671C19.9978 79.7727 19.7394 79.6566 19.5489 79.4499C19.3584 79.2432 19.2512 78.9628 19.251 78.6704C19.251 78.3778 19.358 78.0972 19.5486 77.8903C19.7391 77.6834 19.9976 77.5671 20.2671 77.5671H43.8709C44.0043 77.5671 44.1364 77.5957 44.2596 77.6511C44.3828 77.7066 44.4948 77.7879 44.589 77.8903C44.6833 77.9928 44.7581 78.1144 44.8091 78.2483C44.8601 78.3821 44.8862 78.5256 44.8861 78.6704Z" fill="#C6E949"/>
<path d="M81.5773 66.5232L72.7541 44.1252V39.7323C72.753 39.347 72.7197 38.9627 72.6546 38.584C72.0286 29.3006 68.1911 20.618 61.9127 14.2798C55.6343 7.94156 47.3799 4.417 38.807 4.41382V33.3998H37.4525C36.687 33.3998 35.9289 33.5635 35.2217 33.8816C34.5144 34.1997 33.8718 34.6659 33.3304 35.2537C32.7891 35.8414 32.3597 36.5392 32.0667 37.3071C31.7738 38.0751 31.623 38.8982 31.623 39.7294V41.3053H4.84583C4.85277 49.7246 7.51287 57.8878 12.3841 64.4383C17.2553 70.9889 24.0444 75.5323 31.623 77.3137V86.7339C31.623 88.4126 32.2372 90.0226 33.3304 91.2096C34.4237 92.3966 35.9064 93.0635 37.4525 93.0635H66.9254C68.4714 93.0632 69.9539 92.3962 71.047 91.2093C72.1401 90.0222 72.7541 88.4124 72.7541 86.7339V68.568H80.333C80.5664 68.6015 80.8037 68.563 81.0179 68.457C81.2322 68.3509 81.4146 68.1816 81.5444 67.9683C81.6742 67.7551 81.7461 67.5065 81.7519 67.2509C81.7578 66.9954 81.6973 66.7432 81.5773 66.5232Z" fill="#C6E949"/>
<path d="M38.7946 71.7742V41.262H66.8787C66.8748 35.2326 65.2247 29.3398 62.1369 24.3284C59.0491 19.3171 54.6622 15.4122 49.5308 13.1075C44.3994 10.8028 38.7539 10.2016 33.3079 11.38C27.8619 12.5585 22.8599 15.4635 18.9342 19.7281C15.0086 23.9926 12.3355 29.4251 11.2529 35.3388C10.1704 41.2525 10.7269 47.382 12.8521 52.9524C14.9773 58.5228 18.5759 63.284 23.1929 66.6342C27.8099 69.9843 33.238 71.773 38.7911 71.7742H38.7946Z" fill="#77B331"/>
<path d="M34.5513 0.0495605H34.5442C25.5457 0.0495605 16.9159 3.93075 10.553 10.8393C4.19013 17.7479 0.615479 27.118 0.615479 36.8882V36.9141H34.5504L34.5513 0.0495605Z" fill="#C6E949"/>
<path d="M56.8915 45.8858C59.2326 35.0371 53.0307 24.1818 43.0391 21.6399C33.0475 19.0979 23.0498 25.8319 20.7087 36.6806C18.3676 47.5293 24.5695 58.3846 34.5611 60.9266C44.5527 63.4685 54.5504 56.7346 56.8915 45.8858Z" fill="#02227D"/>
<path d="M38.785 44.0715V80.2636C38.785 82.5715 38.4731 84.6929 41.6994 84.6929H63.8958" stroke="white" stroke-width="2" stroke-miterlimit="10"/>
<path d="M48.5142 43.0072C49.3889 37.1846 45.7509 31.6946 40.3884 30.7448C35.0258 29.7951 29.9696 33.7452 29.0948 39.5677C28.2201 45.3903 31.8582 50.8803 37.2207 51.8301C42.5832 52.7798 47.6394 48.8297 48.5142 43.0072Z" fill="white"/>
<path d="M42.9524 41.2833C42.9524 42.1753 42.7088 43.0472 42.2525 43.7888C41.7961 44.5304 41.1474 45.1084 40.3885 45.4497C39.6296 45.791 38.7945 45.8803 37.9888 45.7063C37.1831 45.5323 36.4431 45.1028 35.8622 44.4721C35.2814 43.8414 34.8858 43.0379 34.7255 42.1631C34.5653 41.2883 34.6476 40.3816 34.9619 39.5576C35.2763 38.7335 35.8086 38.0292 36.4916 37.5337C37.1747 37.0382 37.9777 36.7737 38.7991 36.7737C39.3446 36.7736 39.8847 36.8901 40.3886 37.1167C40.8926 37.3433 41.3505 37.6755 41.7362 38.0943C42.1219 38.513 42.4278 39.0102 42.6365 39.5574C42.8452 40.1046 42.9525 40.6911 42.9524 41.2833Z" fill="#77B331"/>
<path d="M75.0091 44.3501H65.6607C62.9191 44.3501 60.6948 47.0226 60.6948 50.3191C60.6948 53.6155 62.9182 56.2881 65.6607 56.2881H79.2567L75.0091 44.3501Z" fill="#77B331"/>
<path d="M62.8355 76.1262C62.3704 76.1262 61.9243 76.3268 61.5954 76.6839C61.2665 77.041 61.0818 77.5253 61.0818 78.0303V94.7915H66.9245C67.8461 94.7916 68.7586 94.5946 69.6101 94.2118C70.4615 93.8289 71.2352 93.2677 71.8868 92.5601C72.5385 91.8526 73.0554 91.0126 73.408 90.0881C73.7606 89.1636 73.942 88.1727 73.9419 87.1721V76.1262H62.8355Z" fill="#77B331"/>
<path d="M201.544 63.644H94.9116V137.322H201.544V63.644Z" fill="#C6E949"/>
<path d="M193.613 71.2988H101.962V128.71H193.613V71.2988Z" fill="white"/>
<path d="M192.732 72.2559H102.843V127.753H192.732V72.2559Z" stroke="#02227D" stroke-width="2"/>
<path d="M127.64 82.008H128.4C128.357 81.704 128.267 81.4373 128.128 81.208C127.989 80.9733 127.816 80.7787 127.608 80.624C127.4 80.4693 127.163 80.352 126.896 80.272C126.629 80.192 126.347 80.152 126.048 80.152C125.611 80.152 125.221 80.232 124.88 80.392C124.544 80.5467 124.261 80.76 124.032 81.032C123.808 81.304 123.637 81.624 123.52 81.992C123.403 82.3547 123.344 82.744 123.344 83.16C123.344 83.576 123.397 83.9653 123.504 84.328C123.616 84.6907 123.781 85.0053 124 85.272C124.219 85.5387 124.493 85.7493 124.824 85.904C125.155 86.0533 125.541 86.128 125.984 86.128C126.715 86.128 127.291 85.928 127.712 85.528C128.133 85.128 128.381 84.568 128.456 83.848H127.696C127.68 84.0827 127.632 84.3013 127.552 84.504C127.472 84.7067 127.36 84.8827 127.216 85.032C127.077 85.176 126.909 85.2907 126.712 85.376C126.52 85.456 126.299 85.496 126.048 85.496C125.707 85.496 125.413 85.432 125.168 85.304C124.923 85.176 124.72 85.0053 124.56 84.792C124.405 84.5733 124.291 84.32 124.216 84.032C124.141 83.7387 124.104 83.4293 124.104 83.104C124.104 82.8053 124.141 82.5173 124.216 82.24C124.291 81.9627 124.405 81.7173 124.56 81.504C124.72 81.2853 124.92 81.112 125.16 80.984C125.405 80.856 125.699 80.792 126.04 80.792C126.44 80.792 126.784 80.8933 127.072 81.096C127.365 81.2987 127.555 81.6027 127.64 82.008ZM129.397 80.288V86H133.365V85.36H130.157V83.384H133.125V82.744H130.157V80.928H133.341V80.288H129.397ZM134.288 80.288V86H135.048V83.56H136.904C137.091 83.56 137.24 83.5893 137.352 83.648C137.464 83.7013 137.555 83.776 137.624 83.872C137.693 83.9627 137.744 84.072 137.776 84.2C137.808 84.3227 137.835 84.4533 137.856 84.592C137.883 84.7307 137.899 84.872 137.904 85.016C137.909 85.16 137.915 85.296 137.92 85.424C137.925 85.5467 137.936 85.6587 137.952 85.76C137.973 85.8613 138.011 85.9413 138.064 86H138.912C138.832 85.904 138.771 85.7947 138.728 85.672C138.691 85.544 138.661 85.4107 138.64 85.272C138.619 85.1333 138.605 84.992 138.6 84.848C138.595 84.704 138.587 84.5627 138.576 84.424C138.56 84.2853 138.536 84.152 138.504 84.024C138.477 83.896 138.432 83.7813 138.368 83.68C138.309 83.5733 138.227 83.4827 138.12 83.408C138.019 83.3333 137.885 83.28 137.72 83.248V83.232C138.067 83.136 138.317 82.9573 138.472 82.696C138.632 82.4347 138.712 82.1307 138.712 81.784C138.712 81.32 138.557 80.9547 138.248 80.688C137.944 80.4213 137.52 80.288 136.976 80.288H134.288ZM136.632 82.92H135.048V80.928H136.936C137.293 80.928 137.552 81.0187 137.712 81.2C137.872 81.3813 137.952 81.616 137.952 81.904C137.952 82.112 137.915 82.2827 137.84 82.416C137.771 82.544 137.675 82.648 137.552 82.728C137.435 82.8027 137.296 82.8533 137.136 82.88C136.976 82.9067 136.808 82.92 136.632 82.92ZM140.92 80.928V86H141.68V80.928H143.584V80.288H139.016V80.928H140.92ZM144.25 80.288V86H145.01V80.288H144.25ZM146.288 80.288V86H147.048V83.384H149.672V82.744H147.048V80.928H150.04V80.288H146.288ZM150.914 80.288V86H151.674V80.288H150.914ZM156.968 82.008H157.728C157.685 81.704 157.595 81.4373 157.456 81.208C157.317 80.9733 157.144 80.7787 156.936 80.624C156.728 80.4693 156.491 80.352 156.224 80.272C155.957 80.192 155.675 80.152 155.376 80.152C154.939 80.152 154.549 80.232 154.208 80.392C153.872 80.5467 153.589 80.76 153.36 81.032C153.136 81.304 152.965 81.624 152.848 81.992C152.731 82.3547 152.672 82.744 152.672 83.16C152.672 83.576 152.725 83.9653 152.832 84.328C152.944 84.6907 153.109 85.0053 153.328 85.272C153.547 85.5387 153.821 85.7493 154.152 85.904C154.483 86.0533 154.869 86.128 155.312 86.128C156.043 86.128 156.619 85.928 157.04 85.528C157.461 85.128 157.709 84.568 157.784 83.848H157.024C157.008 84.0827 156.96 84.3013 156.88 84.504C156.8 84.7067 156.688 84.8827 156.544 85.032C156.405 85.176 156.237 85.2907 156.04 85.376C155.848 85.456 155.627 85.496 155.376 85.496C155.035 85.496 154.741 85.432 154.496 85.304C154.251 85.176 154.048 85.0053 153.888 84.792C153.733 84.5733 153.619 84.32 153.544 84.032C153.469 83.7387 153.432 83.4293 153.432 83.104C153.432 82.8053 153.469 82.5173 153.544 82.24C153.619 81.9627 153.733 81.7173 153.888 81.504C154.048 81.2853 154.248 81.112 154.488 80.984C154.733 80.856 155.027 80.792 155.368 80.792C155.768 80.792 156.112 80.8933 156.4 81.096C156.693 81.2987 156.883 81.6027 156.968 82.008ZM159.71 83.64L160.678 80.976H160.694L161.646 83.64H159.71ZM160.278 80.288L158.054 86H158.83L159.47 84.28H161.886L162.51 86H163.35L161.118 80.288H160.278ZM164.475 80.928V86H165.235V80.928H167.139V80.288H162.571V80.928H164.475ZM167.772 80.288V86H171.74V85.36H168.532V83.384H171.5V82.744H168.532V80.928H171.716V80.288H167.772Z" fill="#2E3092"/>
<path d="M172.104 122.592V137.321L177.589 133.544L183.073 137.321V122.592H172.104Z" fill="#02227D"/>
<path d="M177.589 127.507L177.321 127.284L174.735 125.135L171.506 125.594L171.171 125.642L171.042 125.303L169.797 122.036L166.788 120.683L166.475 120.543L166.519 120.179L166.942 116.673L164.963 113.866L164.758 113.575L164.963 113.284L166.942 110.477L166.519 106.971L166.475 106.608L166.788 106.467L169.797 105.115L171.042 101.848L171.171 101.509L171.507 101.556L174.735 102.015L177.321 99.8666L177.589 99.644L177.857 99.8666L180.442 102.015L183.671 101.556L184.006 101.509L184.135 101.848L185.381 105.115L188.39 106.467L188.702 106.608L188.658 106.971L188.235 110.477L190.214 113.284L190.419 113.575L190.214 113.866L188.235 116.673L188.658 120.179L188.702 120.543L188.39 120.683L185.381 122.036L184.135 125.303L184.006 125.642L183.671 125.594L180.442 125.135L177.857 127.284L177.589 127.507Z" fill="#02227D"/>
<path d="M177.589 100.247L174.859 102.516L171.449 102.031L170.134 105.481L166.956 106.909L167.403 110.611L165.313 113.575L167.403 116.54L166.956 120.241L170.134 121.67L171.449 125.12L174.859 124.635L177.589 126.904L180.319 124.635L183.728 125.12L185.044 121.67L188.221 120.241L187.775 116.54L189.864 113.575L187.775 110.611L188.221 106.909L185.044 105.481L183.728 102.031L180.319 102.516L177.589 100.247ZM177.589 99.0417L178.124 99.4869L180.565 101.516L183.614 101.082L184.284 100.987L184.542 101.665L185.718 104.749L188.558 106.025L189.183 106.306L189.095 107.034L188.696 110.344L190.564 112.994L190.974 113.575L190.564 114.157L188.696 116.807L189.095 120.117L189.183 120.845L188.558 121.125L185.718 122.402L184.542 125.486L184.284 126.164L183.614 126.069L180.565 125.635L178.124 127.664L177.589 128.109L177.053 127.664L174.612 125.635L171.564 126.069L170.894 126.164L170.635 125.486L169.459 122.402L166.619 121.125L165.995 120.845L166.082 120.117L166.481 116.807L164.613 114.157L164.203 113.575L164.613 112.994L166.481 110.344L166.082 107.034L165.995 106.306L166.619 106.025L169.459 104.749L170.635 101.665L170.894 100.987L171.564 101.082L174.612 101.516L177.053 99.4869L177.589 99.0417Z" fill="#5CAA46"/>
<path d="M177.589 121.701C181.722 121.701 185.073 118.063 185.073 113.576C185.073 109.088 181.722 105.45 177.589 105.45C173.456 105.45 170.105 109.088 170.105 113.576C170.105 118.063 173.456 121.701 177.589 121.701Z" fill="#77B331"/>
</svg>
