<svg height="512pt" viewBox="0 0 512.128 512" width="512pt" xmlns="http://www.w3.org/2000/svg"><path d="m279.9375 146.617188v21.4375l-8 8-16-8-16 8-8-8v-21.519532c7.277344 3.511719 15.4375 5.441406 24 5.441406 8.558594 0 16.71875-1.921874 24-5.441406zm0 0" fill="#f5f7fa"/><path d="m295.9375 168.054688c13.277344 0 24 10.722656 24 24v15.984374h-128v-15.984374c0-13.277344 10.71875-24 24-24h16l8 8 16-8 16 8 8-8zm0 0" fill="#e6e9ed"/><path d="m295.9375 168.054688h-16c13.261719.015624 23.984375 10.738281 23.984375 24v15.984374h16.015625v-15.984374c0-13.277344-10.714844-24-24-24zm0 0" fill="#ccd1d9"/><path d="m311.9375 68.054688v10.96875c-13.769531-17.917969-22.082031-21.199219-32-19.128907l15.917969-32.558593c10.007812 10.640624 16.082031 25.046874 16.082031 40.71875zm0 0" fill="#f6bb42"/><path d="m311.9375 79.023438v17.03125c0 22.328124-13.050781 41.609374-32 50.488281-7.28125 3.511719-15.441406 5.441406-24 5.441406-8.5625 0-16.722656-1.921875-24-5.441406-18.96875-8.871094-32-28.160157-32-50.488281v-22.871094c46.46875 5.359375 65.03125-10.160156 80-13.28125 9.925781-2.078125 18.238281 1.203125 32 19.121094zm0 0" fill="#eac6bb"/><path d="m295.921875 62.910156v33.144532c0 22.328124-13.050781 41.609374-32 50.488281-4.96875 2.410156-10.363281 4-15.992187 4.800781 2.621093.390625 5.285156.640625 8.007812.640625 8.558594 0 16.71875-1.921875 24-5.441406 18.949219-8.871094 32-28.160157 32-50.488281v-17.03125c-6.25-8.136719-11.351562-13.136719-16.015625-16.113282zm0 0" fill="#d3b1a9"/><path d="m199.9375 73.183594c-2.5625-.328125-5.203125-.640625-8-1.128906v-4c0-33.125 26.871094-60 60-60 17.4375 0 33.109375 7.441406 43.917969 19.28125l-15.917969 32.558593c-14.96875 3.128907-33.53125 18.648438-80 13.289063zm0 0" fill="#ffce54"/><path d="m464.0625 288.089844v24c13.28125 0 24 10.71875 24 24v40s-16 32-56 32-56-32-56-32v-40c0-26.5625 21.441406-48 48-48zm0 0" fill="#965353"/><path d="m464.0625 336.089844v63.8125c16.769531-9.488282 24-23.8125 24-23.8125v-40c0-13.28125-10.71875-24-24-24v-24h-24v24c0 13.246094 10.746094 24 24 24zm0 0" fill="#844747"/><path d="m432.0625 408.089844c40 0 56-32 56-32 0 22.308594-13.039062 41.589844-32 50.46875-7.277344 3.53125-15.4375 5.457031-24 5.457031-8.558594 0-16.71875-1.917969-24-5.457031-18.957031-8.871094-32-28.160156-32-50.46875 0 0 16 32 56 32zm0 0" fill="#eac6bb"/><path d="m432.0625 432.007812c8.5625 0 16.722656-1.917968 24-5.457031v29.539063h-48v-29.539063c7.28125 3.539063 15.441406 5.457031 24 5.457031zm0 0" fill="#f5f7fa"/><path d="m504.0625 480.089844v24h-144v-24c0-13.28125 10.722656-24 24-24h96c13.28125 0 24 10.71875 24 24zm0 0" fill="#e6e9ed"/><path d="m480.0625 456.089844h-24.023438c13.28125 0 24 10.71875 24 24v24h24.023438v-24c0-13.28125-10.71875-24-24-24zm0 0" fill="#ccd1d9"/><path d="m232.0625 456.089844v-24h48v24l-24 8zm0 0" fill="#eac6bb"/><path d="m328.0625 352.398438v79.691406h-144v-79.691406c0-39.75 32.242188-72 72-72 39.761719 0 72 32.25 72 72zm0 0" fill="#ffce54"/><path d="m256.0625 280.398438c-4.03125 0-7.941406.472656-11.789062 1.128906 33.917968 5.816406 59.765624 35.296875 59.765624 70.871094v79.691406h24.023438v-79.691406c0-39.75-32.238281-72-72-72zm0 0" fill="#f6bb42"/><path d="m328.0625 480.089844v24h-144v-24c0-13.28125 10.722656-24 24-24h24l24 8 24-8h24c13.28125 0 24 10.71875 24 24zm0 0" fill="#48cfad"/><path d="m304.0625 456.089844h-24.007812c13.273437.015625 23.984374 10.726562 23.984374 24v24h24.023438v-24c0-13.28125-10.71875-24-24-24zm0 0" fill="#37bc9b"/><path d="m152.0625 504.089844h-144v-24c0-13.28125 10.722656-24 24-24h96c13.28125 0 24 10.71875 24 24zm0 0" fill="#5d9cec"/><path d="m128.0625 456.089844h-24.023438c13.28125 0 24 10.71875 24 24v24h24.023438v-24c0-13.28125-10.71875-24-24-24zm0 0" fill="#4a89dc"/><path d="m80.0625 432.007812c8.5625 0 16.722656-1.917968 24-5.457031v29.539063h-48v-29.539063c7.28125 3.539063 15.441406 5.457031 24 5.457031zm0 0" fill="#f5f7fa"/><path d="m80.0625 432.007812c-8.558594 0-16.71875-1.917968-24-5.457031-18.957031-8.871093-32-28.160156-32-50.472656 0 0 16 32 56 32s56-32 56-32c0 22.3125-13.039062 41.59375-32 50.472656-7.277344 3.539063-15.4375 5.457031-24 5.457031zm0 0" fill="#eac6bb"/><path d="m136.0625 344.089844v32s-16 32-56 32-56-32-56-32v-32c0-30.96875 25.042969-56 56-56 30.960938 0 56 25.03125 56 56zm0 0" fill="#656d78"/><path d="m80.0625 288.089844c-2.535156 0-5.023438.214844-7.46875.542968-.167969.03125-.328125.046876-.488281.078126-.363281.050781-.722657.113281-1.074219.160156-.917969.160156-1.800781.425781-2.703125.609375 25.023437 5.589843 43.703125 27.871093 43.703125 54.609375v55.796875c16.800781-9.472657 24.03125-23.796875 24.03125-23.796875v-32c0-30.96875-25.039062-56-56-56zm0 0" fill="#434a54"/><path d="m183.9375 352.382812v23.6875h-24v-144h192.160156v144h-24.160156v-23.6875c0-39.765624-32.242188-72-72-72-39.761719 0-72 32.234376-72 72zm0 0" fill="#965353"/><path d="m360.097656 208.070312v24h-208.082031v-24zm0 0" fill="#656d78"/><path d="m112.039062 399.886719v22c14.519532-10.046875 24.023438-26.796875 24.023438-45.796875 0 0-7.230469 14.324218-24.023438 23.796875zm0 0" fill="#d3b1a9"/><path d="m464.0625 399.902344v21.96875c14.503906-10.0625 24-26.78125 24-45.78125 0 0-7.230469 14.324218-24 23.8125zm0 0" fill="#d3b1a9"/><path d="m504 512.078125h-144c-4.425781 0-8-3.574219-8-8 0-4.421875 3.574219-8 8-8h144c4.425781 0 8 3.578125 8 8 0 4.425781-3.574219 8-8 8zm0 0"/><path d="m152 512.078125h-144c-4.425781 0-8-3.574219-8-8 0-4.421875 3.574219-8 8-8h144c4.425781 0 8 3.578125 8 8 0 4.425781-3.574219 8-8 8zm0 0"/><path d="m488.015625 344.089844c-4.421875 0-8-3.578125-8-8 0-8.832032-7.183594-16.011719-16.015625-16.011719-4.425781 0-8-3.574219-8-8 0-4.421875 3.574219-8 8-8 17.65625 0 32.015625 14.363281 32.015625 32.011719 0 4.421875-3.574219 8-8 8zm0 0"/><path d="m464 320.078125c-4.425781 0-8-3.574219-8-8v-24c0-4.421875 3.574219-8 8-8s8 3.578125 8 8v24c0 4.425781-3.574219 8-8 8zm0 0"/><path d="m376 344.078125c-4.425781 0-8-3.574219-8-8 0-30.871094 25.128906-56 56-56 4.425781 0 8 3.578125 8 8 0 4.425781-3.574219 8-8 8-22.054688 0-40 17.945313-40 40 0 4.425781-3.574219 8-8 8zm0 0"/><path d="m464 296.078125h-40c-4.425781 0-8-3.574219-8-8 0-4.421875 3.574219-8 8-8h40c4.425781 0 8 3.578125 8 8 0 4.425781-3.574219 8-8 8zm0 0"/><path d="m432 416.078125c-44.433594 0-62.414062-34.933594-63.160156-36.421875-1.976563-3.953125-.375-8.761719 3.574218-10.734375 3.9375-1.960937 8.738282-.386719 10.722657 3.542969.589843 1.160156 14.558593 27.605468 48.855469 27.605468 34.65625 0 48.703124-27.300781 48.839843-27.574218 1.984375-3.953125 6.785157-5.535156 10.734375-3.574219 3.953125 1.972656 5.554688 6.78125 3.578125 10.734375-.730469 1.488281-18.710937 36.421875-63.144531 36.421875zm0 0"/><path d="m376 384.078125c-4.425781 0-8-3.574219-8-8v-40.03125c0-4.421875 3.574219-8 8-8s8 3.578125 8 8v40.03125c0 4.425781-3.574219 8-8 8zm0 0"/><path d="m488 384.078125c-4.425781 0-8-3.574219-8-8v-40.03125c0-4.421875 3.574219-8 8-8s8 3.578125 8 8v40.03125c0 4.425781-3.574219 8-8 8zm0 0"/><path d="m360 488.039062c-4.425781 0-8-3.574218-8-8 0-17.640624 14.351562-31.992187 32-31.992187 4.425781 0 8 3.578125 8 8 0 4.425781-3.574219 8-8 8-8.824219 0-16 7.167969-16 15.992187 0 4.425782-3.574219 8-8 8zm0 0"/><path d="m408 464.097656h-24c-4.425781 0-8-3.578125-8-8 0-4.425781 3.574219-8 8-8h24c4.425781 0 8 3.574219 8 8 0 4.421875-3.574219 8-8 8zm0 0"/><path d="m360 512.078125c-4.425781 0-8-3.574219-8-8v-24.039063c0-4.421874 3.574219-8 8-8s8 3.578126 8 8v24.039063c0 4.425781-3.574219 8-8 8zm0 0"/><path d="m504 488.039062c-4.425781 0-8-3.574218-8-8 0-8.824218-7.175781-15.992187-16-15.992187-4.425781 0-8-3.574219-8-8 0-4.421875 3.574219-8 8-8 17.648438 0 32 14.351563 32 31.992187 0 4.425782-3.574219 8-8 8zm0 0"/><path d="m480 464.097656h-24c-4.425781 0-8-3.578125-8-8 0-4.425781 3.574219-8 8-8h24c4.425781 0 8 3.574219 8 8 0 4.421875-3.574219 8-8 8zm0 0"/><path d="m504 512.078125c-4.425781 0-8-3.574219-8-8v-24.039063c0-4.421874 3.574219-8 8-8s8 3.578126 8 8v24.039063c0 4.425781-3.574219 8-8 8zm0 0"/><path d="m408 464.097656c-4.425781 0-8-3.578125-8-8v-29.472656c0-4.425781 3.574219-8 8-8s8 3.574219 8 8v29.472656c0 4.421875-3.574219 8-8 8zm0 0"/><path d="m456 464.039062c-4.425781 0-8-3.574218-8-8v-29.414062c0-4.425781 3.574219-8 8-8s8 3.574219 8 8v29.414062c0 4.425782-3.574219 8-8 8zm0 0"/><path d="m432 440.015625c-35.289062 0-64-28.703125-64-63.976563 0-4.421874 3.574219-8 8-8s8 3.578126 8 8c0 26.457032 21.527344 47.976563 48 47.976563s48-21.519531 48-47.976563c0-4.421874 3.574219-8 8-8s8 3.578126 8 8c0 35.273438-28.710938 63.976563-64 63.976563zm0 0"/><path d="m456 464.039062h-48c-4.425781 0-8-3.574218-8-8 0-4.421874 3.574219-8 8-8h48c4.425781 0 8 3.578126 8 8 0 4.425782-3.574219 8-8 8zm0 0"/><path d="m80 416.078125c-44.433594 0-62.414062-34.933594-63.160156-36.421875-1.976563-3.953125-.375-8.761719 3.574218-10.734375 3.945313-1.960937 8.738282-.386719 10.722657 3.542969.589843 1.160156 14.558593 27.605468 48.855469 27.605468 34.65625 0 48.703124-27.300781 48.839843-27.574218 1.984375-3.953125 6.792969-5.535156 10.734375-3.574219 3.953125 1.972656 5.554688 6.78125 3.578125 10.734375-.730469 1.488281-18.710937 36.421875-63.144531 36.421875zm0 0"/><path d="m24 384.078125c-4.425781 0-8-3.574219-8-8v-32.03125c0-4.421875 3.574219-8 8-8s8 3.578125 8 8v32.03125c0 4.425781-3.574219 8-8 8zm0 0"/><path d="m136 384.078125c-4.425781 0-8-3.574219-8-8v-32.03125c0-4.421875 3.574219-8 8-8s8 3.578125 8 8v32.03125c0 4.425781-3.574219 8-8 8zm0 0"/><path d="m8 488.039062c-4.425781 0-8-3.574218-8-8 0-17.640624 14.351562-31.992187 32-31.992187 4.425781 0 8 3.578125 8 8 0 4.425781-3.574219 8-8 8-8.824219 0-16 7.167969-16 15.992187 0 4.425782-3.574219 8-8 8zm0 0"/><path d="m56 464.097656h-24c-4.425781 0-8-3.578125-8-8 0-4.425781 3.574219-8 8-8h24c4.425781 0 8 3.574219 8 8 0 4.421875-3.574219 8-8 8zm0 0"/><path d="m8 512.078125c-4.425781 0-8-3.574219-8-8v-24.039063c0-4.421874 3.574219-8 8-8s8 3.578126 8 8v24.039063c0 4.425781-3.574219 8-8 8zm0 0"/><path d="m152 488.039062c-4.425781 0-8-3.574218-8-8 0-8.824218-7.175781-15.992187-16-15.992187-4.425781 0-8-3.574219-8-8 0-4.421875 3.574219-8 8-8 17.648438 0 32 14.351563 32 31.992187 0 4.425782-3.574219 8-8 8zm0 0"/><path d="m128 464.097656h-24c-4.425781 0-8-3.578125-8-8 0-4.425781 3.574219-8 8-8h24c4.425781 0 8 3.574219 8 8 0 4.421875-3.574219 8-8 8zm0 0"/><path d="m152 512.078125c-4.425781 0-8-3.574219-8-8v-24.039063c0-4.421874 3.574219-8 8-8s8 3.578126 8 8v24.039063c0 4.425781-3.574219 8-8 8zm0 0"/><path d="m56 464.097656c-4.425781 0-8-3.578125-8-8v-29.472656c0-4.425781 3.574219-8 8-8s8 3.574219 8 8v29.472656c0 4.421875-3.574219 8-8 8zm0 0"/><path d="m104 464.039062c-4.425781 0-8-3.574218-8-8v-29.414062c0-4.425781 3.574219-8 8-8s8 3.574219 8 8v29.414062c0 4.425782-3.574219 8-8 8zm0 0"/><path d="m80 440.015625c-35.289062 0-64-28.703125-64-63.976563 0-4.421874 3.574219-8 8-8s8 3.578126 8 8c0 26.457032 21.527344 47.976563 48 47.976563s48-21.519531 48-47.976563c0-4.421874 3.574219-8 8-8s8 3.578126 8 8c0 35.273438-28.710938 63.976563-64 63.976563zm0 0"/><path d="m136 352.046875c-4.425781 0-8-3.574219-8-8 0-26.453125-21.527344-47.96875-48-47.96875s-48 21.515625-48 47.96875c0 4.425781-3.574219 8-8 8s-8-3.574219-8-8c0-35.269531 28.710938-63.96875 64-63.96875s64 28.699219 64 63.96875c0 4.425781-3.574219 8-8 8zm0 0"/><path d="m104 464.039062h-48c-4.425781 0-8-3.574218-8-8 0-4.421874 3.574219-8 8-8h48c4.425781 0 8 3.578126 8 8 0 4.425782-3.574219 8-8 8zm0 0"/><path d="m328 440.078125c-4.425781 0-8-3.574219-8-8v-79.664063c0-4.421874 3.574219-8 8-8s8 3.578126 8 8v79.664063c0 4.425781-3.574219 8-8 8zm0 0"/><path d="m328 440.078125h-144c-4.425781 0-8-3.574219-8-8 0-4.421875 3.574219-8 8-8h144c4.425781 0 8 3.578125 8 8 0 4.425781-3.574219 8-8 8zm0 0"/><path d="m184 440.078125c-4.425781 0-8-3.574219-8-8v-79.664063c0-4.421874 3.574219-8 8-8s8 3.578126 8 8v79.664063c0 4.425781-3.574219 8-8 8zm0 0"/><path d="m328 360.414062c-4.425781 0-8-3.574218-8-8 0-35.285156-28.710938-64-64-64s-64 28.714844-64 64c0 4.425782-3.574219 8-8 8s-8-3.574218-8-8c0-44.109374 35.886719-80 80-80s80 35.890626 80 80c0 4.425782-3.574219 8-8 8zm0 0"/><path d="m184 488.039062c-4.425781 0-8-3.574218-8-8 0-17.640624 14.351562-31.992187 32-31.992187 4.425781 0 8 3.578125 8 8 0 4.425781-3.574219 8-8 8-8.824219 0-16 7.167969-16 15.992187 0 4.425782-3.574219 8-8 8zm0 0"/><path d="m232 464.097656h-24c-4.425781 0-8-3.578125-8-8 0-4.425781 3.574219-8 8-8h24c4.425781 0 8 3.574219 8 8 0 4.421875-3.574219 8-8 8zm0 0"/><path d="m184 512.078125c-4.425781 0-8-3.574219-8-8v-24.039063c0-4.421874 3.574219-8 8-8s8 3.578126 8 8v24.039063c0 4.425781-3.574219 8-8 8zm0 0"/><path d="m328 488.039062c-4.425781 0-8-3.574218-8-8 0-8.824218-7.175781-15.992187-16-15.992187-4.425781 0-8-3.574219-8-8 0-4.421875 3.574219-8 8-8 17.648438 0 32 14.351563 32 31.992187 0 4.425782-3.574219 8-8 8zm0 0"/><path d="m304 464.097656h-24c-4.425781 0-8-3.578125-8-8 0-4.425781 3.574219-8 8-8h24c4.425781 0 8 3.574219 8 8 0 4.421875-3.574219 8-8 8zm0 0"/><path d="m328 512.078125c-4.425781 0-8-3.574219-8-8v-24.039063c0-4.421874 3.574219-8 8-8s8 3.578126 8 8v24.039063c0 4.425781-3.574219 8-8 8zm0 0"/><path d="m328 512.078125h-144c-4.425781 0-8-3.574219-8-8 0-4.421875 3.574219-8 8-8h144c4.425781 0 8 3.578125 8 8 0 4.425781-3.574219 8-8 8zm0 0"/><path d="m232 464.097656c-4.425781 0-8-3.578125-8-8v-13.472656c0-4.425781 3.574219-8 8-8s8 3.574219 8 8v13.472656c0 4.421875-3.574219 8-8 8zm0 0"/><path d="m280 464.039062c-4.425781 0-8-3.574218-8-8v-13.414062c0-4.425781 3.574219-8 8-8s8 3.574219 8 8v13.414062c0 4.425782-3.574219 8-8 8zm0 0"/><path d="m256 472.039062c-.832031 0-1.6875-.136718-2.527344-.414062l-24-8c-4.183594-1.394531-6.457031-5.921875-5.058594-10.121094 1.402344-4.183594 5.882813-6.464844 10.121094-5.054687l24 8c4.183594 1.390625 6.457032 5.917969 5.058594 10.117187-1.121094 3.355469-4.242188 5.472656-7.59375 5.472656zm0 0"/><path d="m256 472.039062c-3.351562 0-6.472656-2.117187-7.585938-5.472656-1.398437-4.191406.867188-8.726562 5.058594-10.117187l24-8c4.230469-1.410157 8.71875.863281 10.121094 5.054687 1.398438 4.191406-.867188 8.726563-5.058594 10.121094l-24 8c-.847656.277344-1.695312.414062-2.535156.414062zm0 0"/><path d="m200 104.0625c-4.425781 0-8-3.574219-8-8v-22.933594c0-4.425781 3.574219-8 8-8s8 3.574219 8 8v22.933594c0 4.425781-3.574219 8-8 8zm0 0"/><path d="m312 104.0625c-4.425781 0-8-3.574219-8-8v-28c0-4.421875 3.574219-8 8-8s8 3.578125 8 8v28c0 4.425781-3.574219 8-8 8zm0 0"/><path d="m312 76.0625c-4.425781 0-8-3.574219-8-8 0-28.671875-23.328125-52-52-52s-52 23.328125-52 52c0 4.425781-3.574219 8-8 8s-8-3.574219-8-8c0-37.496094 30.503906-68 68-68s68 30.503906 68 68c0 4.425781-3.574219 8-8 8zm0 0"/><path d="m312.007812 87.03125c-2.40625 0-4.785156-1.078125-6.359374-3.136719-15.457032-20.183593-19.648438-18.503906-35.3125-12.300781-15.03125 5.941406-37.726563 14.957031-79.582032 8.335938-4.363281-.691407-7.347656-4.785157-6.648437-9.152344.679687-4.363282 4.78125-7.386719 9.152343-6.648438 37.542969 5.925782 56.980469-1.792968 71.191407-7.417968 19.261719-7.632813 32.191406-10.894532 53.902343 17.449218 2.6875 3.503906 2.023438 8.527344-1.488281 11.214844-1.449219 1.121094-3.160156 1.65625-4.855469 1.65625zm0 0"/><path d="m279.992188 67.878906c-1.175782 0-2.382813-.261718-3.511719-.824218-3.96875-1.941407-5.601563-6.742188-3.65625-10.703126l16-32.574218c1.945312-3.96875 6.71875-5.609375 10.703125-3.65625 3.96875 1.941406 5.601562 6.742187 3.65625 10.703125l-16 32.574219c-1.390625 2.839843-4.238282 4.480468-7.191406 4.480468zm0 0"/><path d="m192 200.03125c-4.425781 0-8-3.574219-8-8 0-17.648438 14.351562-32 32-32 4.425781 0 8 3.578125 8 8 0 4.425781-3.574219 8-8 8-8.824219 0-16 7.175781-16 16 0 4.425781-3.574219 8-8 8zm0 0"/><path d="m232 176.078125h-16c-4.425781 0-8-3.574219-8-8 0-4.421875 3.574219-8 8-8h16c4.425781 0 8 3.578125 8 8 0 4.425781-3.574219 8-8 8zm0 0"/><path d="m192 216.046875c-4.425781 0-8-3.574219-8-8v-16.015625c0-4.421875 3.574219-8 8-8s8 3.578125 8 8v16.015625c0 4.425781-3.574219 8-8 8zm0 0"/><path d="m320 200.03125c-4.425781 0-8-3.574219-8-8 0-8.824219-7.175781-16-16-16-4.425781 0-8-3.574219-8-8 0-4.421875 3.574219-8 8-8 17.648438 0 32 14.351562 32 32 0 4.425781-3.574219 8-8 8zm0 0"/><path d="m296 176.078125h-16c-4.425781 0-8-3.574219-8-8 0-4.421875 3.574219-8 8-8h16c4.425781 0 8 3.578125 8 8 0 4.425781-3.574219 8-8 8zm0 0"/><path d="m320 216.046875c-4.425781 0-8-3.574219-8-8v-16.015625c0-4.421875 3.574219-8 8-8s8 3.578125 8 8v16.015625c0 4.425781-3.574219 8-8 8zm0 0"/><path d="m232 176.078125c-4.425781 0-8-3.574219-8-8v-21.46875c0-4.425781 3.574219-8 8-8s8 3.574219 8 8v21.46875c0 4.425781-3.574219 8-8 8zm0 0"/><path d="m280 176.03125c-4.425781 0-8-3.574219-8-8v-21.421875c0-4.425781 3.574219-8 8-8s8 3.574219 8 8v21.421875c0 4.425781-3.574219 8-8 8zm0 0"/><path d="m256 160c-35.289062 0-64-28.695312-64-63.96875 0-4.421875 3.574219-8 8-8s8 3.578125 8 8c0 26.457031 21.527344 47.96875 48 47.96875s48-21.511719 48-47.96875c0-4.421875 3.574219-8 8-8s8 3.578125 8 8c0 35.273438-28.710938 63.96875-64 63.96875zm0 0"/><path d="m240.007812 184.0625c-2.9375 0-5.761718-1.613281-7.167968-4.421875-1.976563-3.953125-.375-8.761719 3.574218-10.738281l16-8c3.960938-1.964844 8.753907-.375 10.738282 3.578125 1.976562 3.953125.375 8.757812-3.578125 10.734375l-16 8c-1.140625.578125-2.359375.847656-3.566407.847656zm0 0"/><path d="m272 184.0625c-2.039062 0-4.089844-.773438-5.648438-2.335938-3.128906-3.117187-3.144531-8.175781-.015624-11.3125l8-8.03125c3.121093-3.109374 8.175781-3.152343 11.3125-.015624 3.128906 3.121093 3.144531 8.175781.015624 11.3125l-8 8.03125c-1.558593 1.5625-3.609374 2.351562-5.664062 2.351562zm0 0"/><path d="m240 184.0625c-2.054688 0-4.105469-.78125-5.664062-2.351562l-8-8.03125c-3.128907-3.136719-3.113282-8.191407.015624-11.3125 3.136719-3.144532 8.191407-3.121094 11.3125.015624l8 8.03125c3.128907 3.136719 3.113282 8.195313-.015624 11.3125-1.558594 1.5625-3.609376 2.335938-5.648438 2.335938zm0 0"/><path d="m271.992188 184.0625c-1.199219 0-2.425782-.269531-3.566407-.839844l-16-8c-3.953125-1.976562-5.554687-6.78125-3.578125-10.734375 1.984375-3.953125 6.785156-5.542969 10.738282-3.578125l16 8c3.949218 1.976563 5.550781 6.785156 3.574218 10.738282-1.40625 2.800781-4.230468 4.414062-7.167968 4.414062zm0 0"/><path d="m360.152344 240.0625h-208.046875c-4.425781 0-8-3.574219-8-8v-23.992188c0-4.421874 3.574219-8 8-8h208.046875c4.421875 0 8 3.578126 8 8v23.992188c0 4.425781-3.585938 8-8 8zm-200.046875-16h192.046875v-7.992188h-192.046875zm0 0"/><path d="m159.976562 376.160156c-4.425781 0-8-3.574218-8-8v-136.238281c0-4.425781 3.574219-8 8-8 4.421876 0 8 3.574219 8 8v136.230469c0 4.421875-3.578124 8.007812-8 8.007812zm0 0"/><path d="m352.144531 384.167969c-4.425781 0-8-3.574219-8-8v-144.238281c0-4.425782 3.574219-8 8-8 4.421875 0 8 3.574218 8 8v144.238281c0 4.417969-3.578125 8-8 8zm0 0"/><path d="m24 384.097656h-15.992188c-4.421874 0-7.9999995-3.578125-7.9999995-8 0-4.425781 3.5781255-8 7.9999995-8h15.992188c4.425781 0 8 3.574219 8 8 0 4.421875-3.574219 8-8 8zm0 0"/><path d="m184 384.105469h-48c-4.425781 0-8-3.578125-8-8 0-4.425781 3.574219-8 8-8h48c4.425781 0 8 3.574219 8 8 0 4.421875-3.574219 8-8 8zm0 0"/><path d="m376 384.105469h-48c-4.425781 0-8-3.578125-8-8 0-4.425781 3.574219-8 8-8h48c4.425781 0 8 3.574219 8 8 0 4.421875-3.574219 8-8 8zm0 0"/><path d="m504.128906 384.097656h-16.128906c-4.425781 0-8-3.578125-8-8 0-4.425781 3.574219-8 8-8h16.128906c4.421875 0 8 3.574219 8 8 0 4.421875-3.578125 8-8 8zm0 0"/><path d="m168.136719 216.046875c-4.425781 0-8-3.574219-8-8v-40.015625c0-4.421875 3.574219-8 8-8 4.421875 0 8 3.578125 8 8v40.015625c0 4.425781-3.578125 8-8 8zm0 0"/><path d="m168.136719 176.03125c-2.046875 0-4.097657-.785156-5.65625-2.34375-3.128907-3.128906-3.128907-8.183594 0-11.3125l15.984375-15.984375c3.128906-3.125 8.183594-3.125 11.3125 0 3.125 3.128906 3.125 8.183594 0 11.3125l-15.984375 15.984375c-1.5625 1.558594-3.609375 2.34375-5.65625 2.34375zm0 0"/><path d="m344.121094 216.046875c-4.425782 0-8-3.574219-8-8v-40.015625c0-4.421875 3.574218-8 8-8 4.421875 0 8 3.578125 8 8v40.015625c0 4.425781-3.578125 8-8 8zm0 0"/><path d="m344.121094 176.03125c-2.050782 0-4.097656-.785156-5.65625-2.34375l-15.984375-15.984375c-3.128907-3.128906-3.128907-8.183594 0-11.3125 3.128906-3.125 8.183593-3.125 11.3125 0l15.984375 15.984375c3.125 3.128906 3.125 8.183594 0 11.3125-1.5625 1.558594-3.609375 2.34375-5.65625 2.34375zm0 0"/></svg>